<svg id="Layer_1" data-name="Layer 1" xmlns="http://www.w3.org/2000/svg" viewBox="0 0 1151.1 1151.1"><defs><style>.cls-1{fill:#fefefe;}.cls-2{fill:#eaf1f7;}.cls-3{fill:#ccdfee;}.cls-4{fill:#d5e5f1;}.cls-5{fill:#e3edf5;}.cls-6{fill:#dbe8f2;}.cls-7{fill:#060607;}.cls-8{fill:#f38520;}.cls-9{fill:#464646;}.cls-10{fill:#3f3f3f;}.cls-11{fill:#475da8;}.cls-12{fill:#3d5092;}.cls-13{fill:#f04f4a;}.cls-14{fill:#0e9b4a;}.cls-15{fill:#ccd4db;}.cls-16{fill:#dd2828;}</style></defs><path class="cls-1" d="M.19,251.4C.19,170.28.29,89.15,0,8,0,1.34,1.35,0,8,0q567.51.3,1135,0c6.69,0,8,1.34,8,8q-.3,567.5,0,1135c0,6.69-1.34,8-8,8q-567.51-.3-1135,.06c-8.24,0-8-3.17-8-9.21Q.28,710.1.19,278.32c2.51.25,3.87,1.45,4.48,4.09,9.5,41.14,46.07,61.7,85.06,61.1,42.6-.66,85.22-.18,127.82-.07,2.28,0,5.07-1.44,7,1.09L220,347.82c-12.5.84-20.39,9.87-28.86,17.15-18.07,15.53-26.25,36.67-24.35,59.54,2.51,30.19,17.07,54.12,46.22,66.92q0,3.35,0,6.68c-43.72,0-87.44-.19-131.16.12s-79,34.92-79.43,77.4a78.78,78.78,0,0,0,78.3,79.47c44.09.17,88.19.06,132.28.07v6.7c-31.22,12.21-52.41,50.38-44.51,85.62,5.77,25.77,19.46,45.3,44.5,55.74,0,2.22,0,4.45.05,6.67-21.29,0-42.59-.32-63.87.2-23.35.57-45.43,6.37-61.73,24-22.31,24.21-28.69,52.64-16.26,83.77,12.2,30.55,40.49,49,73.47,49q34.17.06,68.35.05c1.09,15.72,1.61,16.25,17.22,16.25H487.07q141.3,0,282.62,0c13.4,0,15-1.81,13.11-13.72,3.49-4.29,8.34-2.48,12.58-2.49q85.2-.18,170.4,0a79.72,79.72,0,0,0,21-2.65c43-11.51,61.83-51.34,57.85-82.49-4.75-37.21-26.52-61.41-64.13-69.73,3.34-3.61,7.72-2.08,11.64-2.1,27.24-.14,54.49,0,81.73-.14a53,53,0,0,0,12.13-1.27c45.62-11,73.69-60,54.33-105.41-9.63-22.59-25.75-37.72-49.93-43.65-7.49-3.6-15.47-4.47-23.65-4.47q-74.41,0-148.84,0c4.74-3.27,9.82-5.12,15-6.82,34.45-11.36,54.33-51.38,48-83.7-7-35.93-29.38-55.41-63.24-64.24,3.32-3.64,7.7-2.14,11.62-2.15,47.41-.11,94.82,0,142.23-.13a53.11,53.11,0,0,0,12.15-1.17c45.72-10.81,70.28-50,60.4-96.09-6.44-30.08-39.83-57.44-70.38-57.44q-129.9,0-259.81.05c-1.31-8.81-2.4-17.65-4-26.42C795.75,237.91,723,174.47,643,170.33c-33.54-1.74-65,5.13-95.41,18.46-4-4.31-9.16-2.33-13.76-2.34q-225-.16-450.1-.09c-38.11,0-67.37,21.49-78.52,57.64C4.26,247,5.14,251.15.19,251.4Z"/><path class="cls-2" d="M220,347.82l4.56-3.29c-1.94-2.53-4.73-1.08-7-1.09-42.6-.11-85.22-.59-127.82.07-39,.6-75.56-20-85.06-61.1-.61-2.64-2-3.84-4.48-4.09v-4.49a16.76,16.76,0,0,0,0-17.94V251.4c4.95-.25,4.07-4.38,5-7.4,11.15-36.15,40.41-57.63,78.52-57.64q225,0,450.1.09c4.6,0,9.79-2,13.76,2.34-20.49,12.2-39.79,25.82-55.58,44-28.65,33.07-42.39,71.92-45.52,115-45.57,0-91.14-.3-136.71.13-23.06.21-46.17-1.84-69.24,1.79C234,350.8,226.44,352.37,220,347.82Z"/><path class="cls-1" d="M.19,255.89a16.76,16.76,0,0,1,0,17.94Z"/><path class="cls-3" d="M980.48,812.15c37.61,8.32,59.38,32.52,64.13,69.73,4,31.15-14.83,71-57.85,82.49a79.72,79.72,0,0,1-21,2.65q-85.2-.24-170.4,0c-4.24,0-9.09-1.8-12.58,2.49-4.79-4-10.53-3-16-3q-260.64,0-521.28,0a68.31,68.31,0,0,0-7.84,0c-5.57.66-7-1.91-6.93-7.11.24-15.31-.14-30.64.16-45.95.16-8.48-3.79-19.66,1.87-24.65,4.71-4.16,15.6-1.34,23.75-1.6h1.12c6.16,0,11.84-1.51,11.55-8.94-.25-6.54-5.39-7.83-11.24-8.1-8.83-.41-20.86,4.15-25.6-1.93-4.41-5.66-1.66-17.16-1.46-26.08.19-8.46-3.77-19.62,1.83-24.61,4.67-4.16,15.56-1.36,23.7-1.63.74,0,1.49,0,2.24,0,8.48-.52,12.47-4.37,9.76-13.18,2.59-5.13,7.41-4,11.69-4,15.12-.09,30.24,0,45.35,0,.19,25,1,50,.42,75-1,43.9,2.11,52.66,50.13,50.69,13.42-.55,26.88-.05,40.31-.1,22-.08,30.5-8.57,30.61-30.43q.24-47.57.46-95.13H475.6q.24,47.56.5,95.13c.12,20.84,9.37,30.32,29.82,30.41s41.06.1,61.59,0c20.31-.09,29.42-9.17,29.54-29.28q.26-44.78.42-89.54H625.8c.15,29.85.25,59.7.46,89.55.14,19.35,9.65,29.12,28.67,29.26q31.91.22,63.83,0c19.17-.15,28.37-9.71,28.47-29.26q.24-44.78.39-89.55,102.48,0,205,.06c4,0,9.15-1.73,11.78,1.67C968.87,813,974.6,812.18,980.48,812.15Z"/><path class="cls-4" d="M625.8,805.42H597.47V659.63q127.72,0,255.44-.09c4.55,0,9.87,2.1,13.44-2.95l19.6.11c12.85,6.26,26.17,3.49,39.75,3.48,49.9,0,99.88-3.15,149.75,1.49,4.88.45,10.47,2.17,14.93-2.09,24.18,5.93,40.3,21.06,49.93,43.65,19.36,45.44-8.71,94.37-54.33,105.41a53,53,0,0,1-12.13,1.27c-27.24.11-54.49,0-81.73.14-3.92,0-8.3-1.51-11.64,2.1-5.88,0-11.61.85-16.12-5-2.63-3.4-7.77-1.67-11.78-1.67q-102.48-.11-205-.06-.2-52.67-.39-105.31c-.09-20.06-9.3-29.14-29.59-29.2-19.42,0-38.85,0-58.27,0-25.17,0-33.06,8.09-33.14,33.7Q626.08,755,625.8,805.42Z"/><path class="cls-5" d="M813.86,343.44q129.9,0,259.81-.05c30.55,0,63.94,27.36,70.38,57.44,9.88,46.12-14.68,85.28-60.4,96.09a53.11,53.11,0,0,1-12.15,1.17c-47.41.09-94.82,0-142.23.13-3.92,0-8.3-1.49-11.62,2.15-8.39,2.87-10.6-8-15.22-8.16-16.11-.65-32.56-3.59-48.5,1.82q-27.9-27.52-55.85-55c-2.75-2.69-3.55-4.91-1.73-8.66C809.63,402.92,813.74,373.57,813.86,343.44Z"/><path class="cls-5" d="M220,347.82c6.44,4.55,14,3,20.52,1.95,23.07-3.63,46.18-1.58,69.24-1.79,45.57-.43,91.14-.13,136.71-.13.44,28.5,5.75,56,16.8,82.35,11.45,27.32,30.39,48.72,53,67.21a41.27,41.27,0,0,1-15.17,3.06c-89.93,2.5-180-5.57-269.84,4.39-.18-11.44-.23-22.88-.58-34.31-.21-6.44-3.26-10.2-10.33-10.21-7.55,0-6.54,5.66-6.85,10.07-.49,7-.39,14-.53,21-29.15-12.8-43.71-36.73-46.22-66.92-1.9-22.87,6.28-44,24.35-59.54C199.61,357.69,207.5,348.66,220,347.82Z"/><path class="cls-6" d="M213,655.17c-44.09,0-88.19.1-132.28-.07a78.78,78.78,0,0,1-78.3-79.47c.43-42.48,35.7-77.1,79.43-77.4s87.44-.1,131.16-.12Q213,576.65,213,655.17Z"/><path class="cls-7" d="M516.31,497.41c-22.65-18.49-41.59-39.89-53-67.21-11-26.34-16.36-53.85-16.8-82.35,3.13-43.11,16.87-82,45.52-115,15.79-18.21,35.09-31.83,55.58-44,30.41-13.33,61.87-20.2,95.41-18.46,80,4.14,152.77,67.58,166.91,146.69,1.57,8.77,2.66,17.61,4,26.42-.12,30.13-4.23,59.48-17.51,86.93-1.82,3.75-1,6,1.73,8.66q28,27.39,55.85,55c19.9,20.16,39.74,40.38,59.73,60.45,7.46,7.49,13.85,15.6,17.28,25.73,8.66,25.56.61,64.86-45,76.49l-19.6-.11c-14.61-3.46-26.23-11.51-36.73-22.15-36.75-37.23-74-74-110.76-111.21-4.69-4.74-8.23-5.65-14.42-2.76a171.81,171.81,0,0,1-65.94,15.78C593,538.28,552.66,524.11,516.31,497.41Zm215.2-275.28c-62.83-51.52-160.12-45.28-219.19,14.05s-64.24,156.4-12,219.39c42.55,53.38,98.9,72.9,164.14,59.48,69.83-14.37,114.16-59.87,128.2-129.52C805.86,320,785,264.23,731.51,222.13ZM876.09,639.67c16.56.06,30.6-9,37.25-24,7.18-16.19,4.28-32.69-9.2-46.29-37.34-37.7-75-75.06-112.39-112.72-4.4-4.44-6.82-5.24-10.71.66a164.71,164.71,0,0,1-46.53,46.35c-5.54,3.7-5.83,5.9-1,10.62C771.41,551.92,809.1,589.8,847,627.51,854.94,635.47,864.58,639.92,876.09,639.67Z"/><path class="cls-7" d="M213,655.17q0-78.52,0-157.06,0-3.33,0-6.68c.14-7,0-14,.53-21,.31-4.41-.7-10.07,6.85-10.07,7.07,0,10.12,3.77,10.33,10.21.35,11.43.4,22.87.58,34.31-1.48,5.71-.77,9.34,6.64,8.79,7.06-.52,14.19-.06,21.28-.11,5.62,0,9.8,2.24,10,8.13s-3.91,8.42-9.58,8.43c-7.47,0-15,.24-22.41-.05-4.85-.19-6.57,1.61-6.5,6.44.21,13.81.29,27.64,0,41.45-.12,5.44,1.76,7.2,7.09,7,7.45-.35,14.93-.13,22.4,0,5.12.1,8.88,2.58,9,7.92.16,5.91-3.68,8.57-9.35,8.74-2.24.06-4.48,0-6.73,0-22.34.07-22.34.07-22.33,22.85,0,32,0,32,32.31,31.46,4.22,2.82,8,6,5.51,11.79-2.09,4.81-6.42,5.6-11.22,5.43-5.59-.2-11.24.44-16.77-.16-7.49-.81-11,1.13-10,9.46.77,6.62.16,13.4.16,20.11,0,24.31,0,24.31,24.74,24.72,1.11,0,2.23,0,3.35,0,6,.17,10.57,2.63,10.29,9.09-.25,5.7-4.56,8.16-10.08,8.2-6.71.06-13.45.38-20.13-.07-6-.4-8.59,1.15-8.31,7.82.52,12.66.61,25.37,0,38-.35,7.13,2.1,8.35,8.75,8.65,9.69.43,20.22-3.92,29,3.71,2.71,8.81-1.28,12.66-9.76,13.18-.75,0-1.5,0-2.24,0-8.14.27-19-2.53-23.7,1.63-5.6,5-1.64,16.15-1.83,24.61-.2,8.92-3,20.42,1.46,26.08,4.74,6.08,16.77,1.52,25.6,1.93,5.85.27,11,1.56,11.24,8.1.29,7.43-5.39,8.9-11.55,8.94h-1.12c-8.15.26-19-2.56-23.75,1.6-5.66,5-1.71,16.17-1.87,24.65-.3,15.31.08,30.64-.16,45.95-.09,5.2,1.36,7.77,6.93,7.11a68.31,68.31,0,0,1,7.84,0q260.64,0,521.28,0c5.51,0,11.25-1,16,3,1.91,11.91.29,13.71-13.11,13.72q-141.32,0-282.62,0H230.24c-15.61,0-16.13-.53-17.22-16.25q0-78.54,0-157.08c0-2.22,0-4.45-.05-6.67q0-70.68,0-141.36Z"/><path class="cls-3" d="M213.06,809.9q0,78.54,0,157.08-34.19,0-68.35-.05c-33-.06-61.27-18.46-73.47-49-12.43-31.13-6-59.56,16.26-83.77,16.3-17.68,38.38-23.48,61.73-24C170.47,809.58,191.77,809.94,213.06,809.9Z"/><path class="cls-6" d="M886,656.7c45.6-11.63,53.65-50.93,45-76.49-3.43-10.13-9.82-18.24-17.28-25.73-20-20.07-39.83-40.29-59.73-60.45,15.94-5.41,32.39-2.47,48.5-1.82,4.62.19,6.83,11,15.22,8.16,33.86,8.83,56.26,28.31,63.24,64.24,6.28,32.32-13.6,72.34-48,83.7-5.13,1.7-10.21,3.55-15,6.82q74.43,0,148.84,0c8.18,0,16.16.87,23.65,4.47-4.46,4.26-10.05,2.54-14.93,2.09-49.87-4.64-99.85-1.53-149.75-1.49C912.12,660.19,898.8,663,886,656.7Z"/><path class="cls-4" d="M213,661.87q0,70.68,0,141.36c-25-10.44-38.73-30-44.5-55.74C160.61,712.25,181.8,674.08,213,661.87Z"/><path class="cls-4" d="M268.39,802.73c-8.8-7.63-19.33-3.28-29-3.71-6.65-.3-9.1-1.52-8.75-8.65.63-12.65.54-25.36,0-38-.28-6.67,2.28-8.22,8.31-7.82,6.68.45,13.42.13,20.13.07,5.52,0,9.83-2.5,10.08-8.2.28-6.46-4.32-8.92-10.29-9.09-1.12,0-2.24,0-3.35,0-24.73-.41-24.73-.41-24.74-24.72,0-6.71.61-13.49-.16-20.11-1-8.33,2.51-10.27,10-9.46,5.53.6,11.18,0,16.77.16,4.8.17,9.13-.62,11.22-5.43,2.5-5.76-1.29-9-5.51-11.79,5.2-.27,10.4-.75,15.61-.76q98.45-.07,196.89,0V798.7H447.36c-.17-17.88-.11-35.76-.58-53.62-.36-13.7-9.25-24-22.69-24.38q-37.43-1.1-74.89,0c-13.73.41-23.18,12-23.23,25.51-.07,17.5-.35,35-.54,52.49-15.11,0-30.23-.05-45.35,0C275.8,798.76,271,797.6,268.39,802.73Z"/><path class="cls-7" d="M475.6,798.7V655.15c.16-18.27.25-36.54.51-54.8.26-18.91,9.55-28.29,28.14-28.37q32.46-.15,64.91,0c18.94.09,27.73,9.09,27.89,28.36q.26,29.65.42,59.29V805.42q-.21,44.76-.42,89.54c-.12,20.11-9.23,29.19-29.54,29.28q-30.79.15-61.59,0c-20.45-.09-29.7-9.57-29.82-30.41Q475.82,846.27,475.6,798.7Zm82.91-209.47c-17.89-1.4-35.78-.75-53.69-.27-8.75.24-11.55,4.08-11.43,12.53.37,25.4.1,50.81.14,76.21q.15,108.7.35,217.41c-1.69,9.29,3.09,11.79,11.42,11.69,19-.25,38.05-.08,57.07-.08,17.47,0,18.25-.76,18.25-18.25q0-140.43,0-280.86C580.62,588.88,578,586.75,558.51,589.23Z"/><path class="cls-7" d="M625.8,805.42q.23-50.4.43-100.82c.08-25.61,8-33.69,33.14-33.7,19.42,0,38.85,0,58.27,0,20.29.06,29.5,9.14,29.59,29.2q.24,52.65.39,105.31-.2,44.77-.39,89.55c-.1,19.55-9.3,29.11-28.47,29.26q-31.92.22-63.83,0c-19-.14-28.53-9.91-28.67-29.26C626.05,865.12,626,835.27,625.8,805.42Zm104-7.72c0-32.47-.09-64.93.06-97.4,0-7.44-1.7-12.1-10.53-12-21.63.25-43.28.06-64.92-.15-7.41-.08-10.87,2.76-10.85,10.55q.25,98.52.08,197c0,8.32,3.57,11.12,11.54,11,20.14-.3,40.31-.56,60.44.09,10.61.34,14.56-3.07,14.37-14C729.47,861.14,729.82,829.42,729.82,797.7Z"/><path class="cls-7" d="M325.43,798.7c.19-17.49.47-35,.54-52.49,0-13.47,9.5-25.1,23.23-25.51q37.43-1.14,74.89,0c13.44.39,22.33,10.68,22.69,24.38.47,17.86.41,35.74.58,53.62q-.23,47.56-.46,95.13c-.11,21.86-8.63,30.35-30.61,30.43-13.43,0-26.89-.45-40.31.1-48,2-51.14-6.79-50.13-50.69C326.42,848.69,325.62,823.69,325.43,798.7Zm17.91,23.36h.05c0,24.28.21,48.56-.12,72.84-.12,8.76,3.34,11.91,12,11.75,20.91-.37,41.84-.4,62.75,0,8.87.17,12.31-4,12.31-12q.09-72.27,0-144.55c0-8.85-4.11-12.48-13.22-12.29-20.53.42-41.09.34-61.63-.11-9.34-.21-12.44,3.54-12.29,12.63C343.61,774.25,343.34,798.16,343.34,822.06Z"/><path class="cls-6" d="M597.47,659.63q-.21-29.64-.42-59.29c-.16-19.27-8.95-28.27-27.89-28.36q-32.45-.15-64.91,0c-18.59.08-27.88,9.46-28.14,28.37-.26,18.26-.35,36.53-.51,54.8q-98.44,0-196.89,0c-5.21,0-10.41.49-15.61.76-32.31.51-32.31.51-32.31-31.46,0-22.78,0-22.78,22.33-22.85,2.25,0,4.49,0,6.73,0,5.67-.17,9.51-2.83,9.35-8.74-.15-5.34-3.91-7.82-9-7.92-7.47-.16-15-.38-22.4,0-5.33.24-7.21-1.52-7.09-7,.31-13.81.23-27.64,0-41.45-.07-4.83,1.65-6.63,6.5-6.44,7.46.29,14.94.06,22.41.05,5.67,0,9.74-2.47,9.58-8.43s-4.35-8.16-10-8.13c-7.09.05-14.22-.41-21.28.11-7.41.55-8.12-3.08-6.64-8.79,89.81-10,179.91-1.89,269.84-4.39a41.27,41.27,0,0,0,15.17-3.06c36.35,26.7,76.7,40.87,122.19,38.84a171.81,171.81,0,0,0,65.94-15.78c6.19-2.89,9.73-2,14.42,2.76,36.78,37.21,74,74,110.76,111.21,10.5,10.64,22.12,18.69,36.73,22.15-3.57,5-8.89,2.94-13.44,2.95Q725.19,659.73,597.47,659.63Z"/><path class="cls-8" d="M876.09,639.67c-11.51.25-21.15-4.2-29.14-12.16-37.85-37.71-75.54-75.59-113.49-113.2-4.78-4.72-4.49-6.92,1-10.62A164.71,164.71,0,0,0,781,457.34c3.89-5.9,6.31-5.1,10.71-.66,37.38,37.66,75,75,112.39,112.72,13.48,13.6,16.38,30.1,9.2,46.29C906.69,630.69,892.65,639.73,876.09,639.67Z"/><path class="cls-9" d="M500.31,455.57c-52.23-63-46.91-160.2,12-219.39s156.36-65.57,219.18-14.05c-.34,4.13,1,7.83,2.22,11.75,4.76,15.37,9.89,30.75,8.74,47.25-1.47-1.67-3-3.25-4.37-5-26.51-35.28-62.06-55-105.89-55.33-44.07-.36-81.21,17.39-107.88,53.44-22,29.77-30.13,63.26-24.41,100.18,6.16,39.74,28.77,68.46,59.71,91.93-3.32.36-6.57-.33-9.84-.54C532.78,464.7,517.37,456.12,500.31,455.57Z"/><path class="cls-10" d="M742.46,281.13c1.15-16.5-4-31.88-8.74-47.25-1.22-3.92-2.56-7.62-2.22-11.75,53.46,42.1,74.36,97.87,61.15,163.4-14,69.65-58.37,115.15-128.2,129.52-65.24,13.42-121.59-6.1-164.14-59.48,17.06.55,32.47,9.13,49.47,10.23,3.27.21,6.52.9,9.83.54,2.38,1,4.82,2,7.16,3.08,50.84,24.57,100.22,22.47,145-12.51,39.28-30.66,55.4-72.33,49.44-122.48C758.94,315,750.35,298.31,742.46,281.13Z"/><path class="cls-11" d="M493.88,895.11q-.18-108.71-.35-217.41c0-25.4.23-50.81-.14-76.21-.12-8.45,2.68-12.29,11.43-12.53,17.91-.48,35.8-1.13,53.69.27q.12,99.49.21,199c0,13.36.54,26.69-2.14,40C550.56,858.07,527.52,887.49,493.88,895.11Z"/><path class="cls-12" d="M493.88,895.11c33.64-7.62,56.68-37,62.7-66.91,2.68-13.28,2.15-26.61,2.14-40q0-99.5-.21-199c19.49-2.48,22.11-.35,22.11,18.38q0,140.43,0,280.86c0,17.49-.78,18.24-18.25,18.25-19,0-38-.17-57.07.08C497,906.9,492.19,904.4,493.88,895.11Z"/><path class="cls-13" d="M729.82,797.7c0,31.72-.35,63.44.19,95.15.19,10.91-3.76,14.32-14.37,14-20.13-.65-40.3-.39-60.44-.09-8,.11-11.55-2.69-11.54-11q.2-98.51-.08-197c0-7.79,3.44-10.63,10.85-10.55,21.64.21,43.29.4,64.92.15,8.83-.1,10.56,4.56,10.53,12C729.73,732.77,729.82,765.23,729.82,797.7Z"/><path class="cls-14" d="M343.34,822.06c0-23.9.27-47.81-.14-71.71-.15-9.09,2.95-12.84,12.29-12.63,20.54.45,41.1.53,61.63.11,9.11-.19,13.22,3.44,13.22,12.29q0,72.27,0,144.55c0,8-3.44,12.17-12.31,12-20.91-.42-41.84-.39-62.75,0-8.63.16-12.09-3-12-11.75.33-24.28.12-48.56.12-72.84Z"/><path class="cls-7" d="M742.46,281.13c7.89,17.18,16.48,33.86,18.79,53.3,6,50.15-10.16,91.82-49.44,122.48-44.82,35-94.2,37.08-145,12.51-2.34-1.13-4.78-2.06-7.16-3.08-30.93-23.47-53.54-52.19-59.7-91.93-5.72-36.92,2.39-70.41,24.41-100.18,26.67-36.05,63.81-53.8,107.88-53.44,43.83.37,79.38,20.05,105.89,55.33C739.42,277.88,741,279.46,742.46,281.13ZM691,256.18c-40.2-28.94-102-22.65-140.73,14.32-38.45,36.68-46.35,99.67-17.83,142.32,31,54.34,104.47,71.82,159.1,37.85C763.35,406,763,296,691,256.18Z"/><path class="cls-15" d="M691,256.18c72,39.79,72.32,149.85.54,194.49-54.63,34-128.13,16.49-159.1-37.85,8.84-.13,17.06,7.3,26.32,2.19,1.11.95,2.3,1.82,3.32,2.86,23.07,23.53,51,31,82,21.31,30.67-9.58,48.8-31.72,54.58-63.56,3.17-17.46,1.24-19.9-16.64-21.32v-8.42c10.44-.11,20.88-.16,31.32-.36,10.93-.2,13.7-3.46,12.66-14.55-2.36-25.29-14.38-45-34.51-60.11Z"/><path class="cls-5" d="M691,256.18l.51,14.68c-12.68-7.51-26-12.8-41-13.35-8.52-.31-12.66,2.88-12.64,11.49.06,21.68,0,43.36,0,65,0,7.78,3.62,11.65,11.68,11.56,10.83-.12,21.66.17,32.5.28v8.42c-14.93.18-29.88-.08-44.77.72-7.82.42-9.16-2.63-9-9.53.44-16.42-.11-32.87.23-49.29.19-9.14-3.47-13-12.67-12.36-18.07,1.32-34,7.56-47.85,19.34C540.63,326.5,527,372.87,558.79,415c-9.26,5.11-17.48-2.32-26.32-2.19C504,370.17,511.85,307.18,550.3,270.5,589.07,233.53,650.83,227.24,691,256.18Z"/><path class="cls-7" d="M558.79,415C527,372.87,540.63,326.5,568,303.18c13.84-11.78,29.78-18,47.85-19.34,9.2-.68,12.86,3.22,12.67,12.36-.34,16.42.21,32.87-.23,49.29-.19,6.9,1.15,9.95,9,9.53,14.89-.8,29.84-.54,44.77-.72,17.88,1.42,19.81,3.86,16.64,21.32-5.78,31.84-23.91,54-54.58,63.56-31,9.69-59,2.22-82-21.31C561.09,416.83,559.9,416,558.79,415Zm122.38-42.82c-18.71,0-37.31-.21-55.91.09-9.39.15-13.68-3.51-13.45-13.21.38-15.66-.44-31.35.29-47,.5-10.75-4.23-10.77-12.12-8.15-29.87,9.89-47.55,41.11-41.14,73,5.79,28.76,33.54,50.23,63.59,49.18A61.58,61.58,0,0,0,681.17,372.19Z"/><path class="cls-7" d="M682.07,345.88c-10.84-.11-21.67-.4-32.5-.28-8.06.09-11.68-3.78-11.68-11.56,0-21.68,0-43.36,0-65,0-8.61,4.12-11.8,12.64-11.49,15,.55,28.35,5.84,41,13.35,20.13,15.08,32.15,34.82,34.51,60.11,1,11.09-1.73,14.35-12.66,14.55C703,345.72,692.51,345.77,682.07,345.88ZM666.4,327.65c11.17.15,22.36.06,33.52.53,7.2.31,8.53-3.31,6.63-9-3.22-9.56-7.39-18.67-15.35-25.43-7.3-9.14-17.4-13.71-28.14-17.21-5.63-1.83-8.19-.17-8,6.23.36,11.55.7,23.17-.1,34.68C654.32,326.82,657.87,329.55,666.4,327.65Z"/><path class="cls-16" d="M681.17,372.19a61.58,61.58,0,0,1-58.74,53.89c-30,1.05-57.8-20.42-63.59-49.18-6.41-31.85,11.27-63.07,41.14-73,7.89-2.62,12.62-2.6,12.12,8.15-.73,15.63.09,31.32-.29,47-.23,9.7,4.06,13.36,13.45,13.21C643.86,372,662.46,372.19,681.17,372.19Z"/><path class="cls-11" d="M666.4,327.65c-8.53,1.9-12.08-.83-11.43-10.17.8-11.51.46-23.13.1-34.68-.2-6.4,2.36-8.06,8-6.23,10.74,3.5,20.84,8.07,28.14,17.21-.19,8.24-6.32,13-10.7,18.9C676.36,318.3,667.86,319.67,666.4,327.65Z"/><path class="cls-12" d="M666.4,327.65c1.46-8,10-9.35,14.1-15,4.38-5.92,10.51-10.66,10.7-18.9,8,6.76,12.13,15.87,15.35,25.43,1.9,5.66.57,9.28-6.63,9C688.76,327.71,677.57,327.8,666.4,327.65Z"/></svg>