<svg id="Layer_1" data-name="Layer 1" xmlns="http://www.w3.org/2000/svg" viewBox="0 0 1313.88 1313.88"><defs><style>.cls-1{fill:#fefefe;}.cls-2{fill:#104267;}.cls-3{fill:#4298da;}.cls-4{fill:#266799;}.cls-5{fill:#296da0;}.cls-6{fill:#3b8bc8;}.cls-7{fill:#215e8d;}.cls-8{fill:#3e92d2;}.cls-9{fill:#2f78af;}.cls-10{fill:#317db7;}.cls-11{fill:#174d75;}.cls-12{fill:#1b5480;}.cls-13{fill:#13466d;}.cls-14{fill:#f9fafb;}.cls-15{fill:#fcfdfd;}.cls-16{fill:#fcfcfd;}</style></defs><path class="cls-1" d="M.25,656.94Q.25,333.7,0,10.48C0,1.72,1.72,0,10.49,0Q656.95.42,1303.4,0c8.76,0,10.48,1.72,10.48,10.48q-.42,646.45,0,1292.92c0,8.76-1.72,10.48-10.48,10.48q-646.46-.42-1292.91,0c-8.76,0-10.5-1.71-10.49-10.48Q.47,980.17.25,656.94Zm540.14,160.2c4.28,1.7,8.56,1.22,12.84,0,12.24.18,24.5.71,36.74.42,11-.26,17.12-6.5,17.5-17.59.31-9.29,1-18.71-.1-27.88-1.45-12.33,1.7-20.39,15-22.16,14.49-3.76,28.35-9.06,41.12-17,1.56-.59,3.39-.84,4.64-1.82,10.45-8.21,13.56-2.89,15.74,7.5a162.62,162.62,0,0,0,14,40.32c5,12.52,10.58,24.76,18.92,35.51a153.12,153.12,0,0,0,28.48,38.29,140.63,140.63,0,0,0,30.29,29.37c30.56,27.12,66.39,44.29,105.54,54.54,8.43,2.21,10.95,5.45,10.56,13.7-.63,13.19-.33,26.44-.1,39.65.1,5.44-.74,9.28-6.12,12.58-13.77,8.41-20.22,21.29-20.2,37.52.07,64.4-.12,128.8.1,193.2.09,26.1,18.23,44.14,44.27,44.41q41.58.43,83.17,0c25.82-.28,44.19-18.64,44.28-44.6.23-64.4.06-128.8.09-193.2,0-12.08-2.71-24.93-12.65-30.73-14.71-8.59-13.55-20.68-13.31-33.75.17-9,.45-17.94-.09-26.86-.45-7.23,2-9.92,9.3-12,133.51-36.84,216.3-153.2,206.33-291.34-8.18-113.22-86.59-206.2-189.32-239.38-19.71-8.08-40.76-9.35-61.51-12.1-19.76-3.38-39.44-2.42-59.09,1-19.52,1.12-38.13,6.14-56.32,13-3.94,1.34-7.86,2.74-11.82,4C831,417.46,816.25,429.28,799,435.77c-4.51-13.13-8-26.64-14.28-39.11C780,385.88,770,373.92,772,364.63c2.27-10.26,15.54-18.13,24.15-26.92,14-14.34,13.76-22.17-1.54-35.72l-26-26c-9.11-9.39-18.1-18.89-27.34-28.14-13.83-13.82-21.06-13.4-35.27-.29-9.77,9-16.66,21.33-29.83,26.5-10.76-8.3-23.46-12.62-35.88-17.5-6.63-4.07-14-6.4-21.47-7.92-8.39-1.71-12.35-5.47-11.55-14.73.89-10.17.35-20.47.16-30.7-.27-14.93-6.18-21-21-21.11q-42.24-.27-84.49,0c-15.27.09-21.51,6.29-22,21.87-.36,11.08-.42,22.2,0,33.28.27,6.31-2.32,9.15-8,10.88-9.77,2.95-19.36,6.48-29,9.77-12,4.08-23.5,17.38-34.16,14.28C397.6,268.89,389.54,255,380,245.82c-11.17-10.74-19.85-11.08-31-.18q-30.63,30-60.55,60.72c-9.37,9.57-9.29,18.24-.11,28.12,7.55,8.12,15.33,16.06,23.52,23.53,5.16,4.71,6.71,8.63,2.75,15.21a206.78,206.78,0,0,0-22.48,54.13c-1.69,6.48-4.75,9-11.56,8.76-11.5-.49-23-.42-34.55,0-12.4.42-19.65,6.8-19.85,18.83q-.72,44.79,0,89.6c.19,12.65,7.52,18.84,20.7,19.11,11.09.23,22.2.39,33.28-.06,6.5-.26,10.12,1.48,11.85,8.27a203.94,203.94,0,0,0,22.87,55.31c3.52,5.84,2.83,9.69-2.15,14.26-8.79,8.07-17.13,16.66-25.35,25.32-7.7,8.11-8,17.41-.43,25.2,18.7,19.24,38.1,37.8,57.21,56.63,14.62,17.94,23.18,18.56,39.08,2.81,5.71-5.65,11.87-11,16.91-17.14,5.7-7,11.67-8.8,19.42-4,18.25,11.5,38.14,18.86,59.13,23.47,3.13,14.16.51,28.54,1.67,42.79,1.38,17.08,6.48,21.65,24.24,20.62ZM825.33,135.66a199.5,199.5,0,0,0-41.45-28.49C771.4,97.41,757.08,91,742.7,84.77a65.32,65.32,0,0,0-6.49-3.91C655,44.23,570.4,30.83,481.87,43.43,376.94,58.37,286.37,102.7,213.36,179.35c-94.53,99.25-138,218.12-128.79,355.51.88,13.21,8.46,21.49,19.14,20.73,10.35-.73,17-9.12,16.6-21.79s-2-25.58-1.63-38.32c3.9-125.73,50.51-232.66,145.92-315.2C366.19,92.39,484.88,60.05,617.89,81.39c38.15,6.12,73.9,19.6,109.39,34.1l43.22,24q16.31,11.21,32.6,22.42l34.53,29.68q14.21,14.82,28.4,29.65L884,245.64l-2.07,2.11-13.12-7.18C857.14,233.45,847.63,235,842,245s-2.05,18.85,10.92,26.41a120.58,120.58,0,0,0,24.94,15.9A183,183,0,0,0,909,307.52c8,5.46,15.83,11.29,24.14,16.29,14.26,8.58,28.29,2,29.29-14.45,1.83-30.46,2.6-61,3.81-91.48,3-17.79-2.16-28.22-14.7-29.61-12.2-1.35-18.71,7.25-19.89,24.89-.68,10.11.38,20.56-3.57,31.46l-14-18.74c-6.56-11.91-16.29-21.23-25.33-31.12a181.81,181.81,0,0,0-30.27-30.91C849.17,152.44,836.84,144.53,825.33,135.66ZM404.8,939.17c14.94,5.35,30.12,9.73,45.94,11.61,18.46,5.39,37.4,7.56,56.53,8.54,33.45,2.43,66.85,3,100-3.1A236.19,236.19,0,0,0,655.68,947c21.52-4.27,41.63-13,62.25-20.06,11.11-3.8,15.69-13.63,11.46-23.24-4.33-9.84-12.24-13.86-22.85-10.24-11.18,3.8-22.23,8-33.34,12l-50.88,13.19A574,574,0,0,1,520,925.17l-56.28-6.82-40.37-9.58L380,893.24l-42.83-20.77-39.55-25c-2.27-1.89-4.46-3.87-6.81-5.65-33-25.17-63.17-53.19-87-87.48a22.68,22.68,0,0,0,1.68-1.87c5.14,3,10.21,6,15.43,8.86,9.56,5.15,18.21,4.2,24.73-5,6.11-8.59,4-19-5.85-25.44-28.12-18.51-56.35-36.88-84.92-54.69-14-8.74-28-1.06-29,15.44q-2.85,48.51-4.94,97.06c-.62,14,5.7,22.38,16.39,23.06,11.32.73,18.49-7.55,19.33-21.85.65-11,1.67-22,2.73-35.65,4.45,6.24,6.9,9.71,9.39,13.16,30.69,42.49,66.39,79.9,110.38,108.91a153.81,153.81,0,0,0,35.68,22.65c14.4,9.56,29.47,17.77,46,23.08C374.62,930,389.7,934.6,404.8,939.17Z"/><path class="cls-2" d="M1037.42,405.93c102.73,33.18,181.14,126.16,189.32,239.38,10,138.14-72.82,254.5-206.33,291.34-7.34,2-9.75,4.72-9.3,12,.54,8.92.26,17.9.09,26.86-.24,13.07-1.4,25.16,13.31,33.75,9.94,5.8,12.65,18.65,12.65,30.73,0,64.4.14,128.8-.09,193.2-.09,26-18.46,44.32-44.28,44.6q-41.58.43-83.17,0c-26-.27-44.18-18.31-44.27-44.41-.22-64.4,0-128.8-.1-193.2,0-16.23,6.43-29.11,20.2-37.52,5.38-3.3,6.22-7.14,6.12-12.58-.23-13.21-.53-26.46.1-39.65.39-8.25-2.13-11.49-10.56-13.7-39.15-10.25-75-27.42-105.54-54.54,2.62-12,11.54-20.67,16.71-31.32,34.37,28.57,73.1,48,117.36,55.71,12.54,2.2,18.28,9.5,17.78,22.27-.38,9.79-.47,19.62,0,29.4.63,12.15-5.71,29.1,2.68,35.17s24.53,1.57,37.23,2.3c7,.41,8.58-2.47,8.46-8.87-.34-18.33-.15-36.66-.11-55s3.11-21.95,21-25.78c169.36-36.17,249.73-223.91,157.25-367.4-31.41-48.74-75.85-80.6-129.92-99.92C1025.25,426.45,1038,418.89,1037.42,405.93ZM901.15,1135.69c0,31.12.2,62.26-.13,93.38-.1,9.21,3,13.14,12.59,13,24.72-.38,49.46-.43,74.19,0,10.1.18,13.48-3.91,13.44-13.66q-.35-92.12,0-184.22c0-9.27-3.38-13-12.77-12.91-24.73.35-49.47.41-74.2,0-10-.18-13.44,3.66-13.29,13.59C901.43,1075.13,901.15,1105.41,901.15,1135.69Z"/><path class="cls-3" d="M344.16,748.55c-19.11-18.83-38.51-37.39-57.21-56.63-7.57-7.79-7.27-17.09.43-25.2,8.22-8.66,16.56-17.25,25.35-25.32,5-4.57,5.67-8.42,2.15-14.26A203.94,203.94,0,0,1,292,571.83c-1.73-6.79-5.35-8.53-11.85-8.27-11.08.45-22.19.29-33.28.06-13.18-.27-20.51-6.46-20.7-19.11q-.69-44.81,0-89.6c.2-12,7.45-18.41,19.85-18.83,11.51-.39,23.05-.46,34.55,0,6.81.29,9.87-2.28,11.56-8.76a206.78,206.78,0,0,1,22.48-54.13c4-6.58,2.41-10.5-2.75-15.21-8.19-7.47-16-15.41-23.52-23.53-9.18-9.88-9.26-18.55.11-28.12q30-30.64,60.55-60.72c11.14-10.9,19.82-10.56,31,.18,9.52,9.16,17.58,23.07,28.77,26.31,10.66,3.1,22.13-10.2,34.16-14.28,9.67-3.29,19.26-6.82,29-9.77,5.72-1.73,8.31-4.57,8-10.88-.46-11.08-.4-22.2,0-33.28.51-15.58,6.75-21.78,22-21.87q42.24-.24,84.49,0c14.78.09,20.69,6.18,21,21.11.19,10.23.73,20.53-.16,30.7-.8,9.26,3.16,13,11.55,14.73,7.48,1.52,14.84,3.85,21.47,7.92-3.06,11.29-13.39,18.93-15.44,30.73-12.31-3.29-24.55-6.84-36.94-9.79-10.84-2.58-15.72-9.56-16-20.11-.28-10.22-.36-20.47,0-30.68.24-6.5-1.82-9.15-8.66-8.92-12.77.43-25.58.44-38.35,0-7-.24-8.7,2.85-8.49,9.13.33,9.79.15,19.61,0,29.41-.15,11.68-5.37,19.37-17.34,21.8a226.59,226.59,0,0,0-80.85,33.6c-9,6-17.29,4.81-25.61-2.26-10.07-8.56-17.34-26.82-29.43-24.6-11.18,2-19.93,17.34-29.75,26.81a49.12,49.12,0,0,1-3.65,3.57c-4.51,3.48-4,6.48,0,10.27,8.06,7.59,15.76,15.58,23.55,23.46,6.92,7,8.09,15.34,2.86,23.3-17.29,26.33-28.79,54.92-35.51,85.6-2.13,9.73-8.9,14-18.66,14-10.23,0-20.47.33-30.69-.07-6.85-.27-10.15,1.49-9.84,9.16.52,12.77.46,25.58,0,38.35-.23,6.87,2.44,8.9,8.94,8.66,10.21-.39,20.45,0,30.68-.11,10.88-.07,18.09,4.92,20.23,15.63,6,30,17.8,57.6,34.44,83.25,5.56,8.56,4.5,17.09-2.6,24.5-6.78,7.08-13.53,14.23-20.82,20.76-5.73,5.14-7.39,8.77-.55,14.81,11.16,9.86,21.34,20.82,31.94,31.32C359.79,729.87,354.73,741,344.16,748.55Z"/><path class="cls-3" d="M727.28,115.49c-35.49-14.5-71.24-28-109.39-34.1-133-21.34-251.7,11-353.29,98.89-95.41,82.54-142,189.47-145.92,315.2-.39,12.74,1.27,25.54,1.63,38.32s-6.25,21.06-16.6,21.79c-10.68.76-18.26-7.52-19.14-20.73C75.38,397.47,118.83,278.6,213.36,179.35c73-76.65,163.58-121,268.51-135.92,88.53-12.6,173.12.8,254.34,37.43a65.32,65.32,0,0,1,6.49,3.91C739.91,96.19,732.88,105.49,727.28,115.49Z"/><path class="cls-3" d="M203.76,754.38c23.84,34.29,54,62.31,87,87.48,2.35,1.78,4.54,3.76,6.81,5.65-9.87,7.26-14.51,17.86-18.47,28.9-44-29-79.69-66.42-110.38-108.91-2.49-3.45-4.94-6.92-9.39-13.16C158.28,768,157.26,779,156.61,790c-.84,14.3-8,22.58-19.33,21.85-10.69-.68-17-9.09-16.39-23.06q2.14-48.54,4.94-97.06c1-16.5,15-24.18,29-15.44,28.57,17.81,56.8,36.18,84.92,54.69,9.82,6.46,12,16.85,5.85,25.44-6.52,9.16-15.17,10.11-24.73,5-5.22-2.82-10.29-5.9-15.43-8.86-.89-1.72-2.81-2.62-3.86-1.28C200.18,753,202.93,753.33,203.76,754.38Z"/><path class="cls-4" d="M663.51,733c-12.77,7.93-26.63,13.23-41.12,17,1.4-5.74,4.21-10.87,6.58-16.22,4.39-9.93,13.73-17.55,13.89-29.41,7.67-4.54,15.12-9.51,23.06-13.5,7-3.53,9.21-8.19,9-16.13-.37-12.28,1.16-24.62,1.89-36.94,9.32-2,11.54-10.74,15.51-17.34,24.25-40.27,48.54-80.53,71.94-121.3,12-20.87,25.48-41,34.74-63.35,17.28-6.49,32-18.31,49.71-23.94,4-1.25,7.88-2.65,11.82-4,.56,10.74-7.87,17.37-11.67,26.1-2.31,5.32-10.87,10.52-2.49,17.58-25.45,14.82-50.56,29.88-70.47,52.38-26.4,29.82-45.7,63.18-57.62,101.38-5.2,16.68-4.49,33.75-8.19,50.35-6.65.12-9.22,5-12,9.92-7.13,12.52-14.65,24.83-21.74,37.38C670.92,712.44,663.94,721.33,663.51,733Z"/><path class="cls-5" d="M799,435.77c-9.26,22.38-22.76,42.48-34.74,63.35-23.4,40.77-47.69,81-71.94,121.3-4,6.6-6.19,15.3-15.51,17.34,6-56.32,26.34-107.33,65.32-148.09,20.27-21.2,29.46-40.09,16-67,5.92-.31,7.93-5.11,11.14-9,4.86-5.89,6.33-15,15.45-17C791,409.13,794.46,422.64,799,435.77Z"/><path class="cls-6" d="M676.19,274c13.17-5.17,20.06-17.49,29.83-26.5,14.21-13.11,21.44-13.53,35.27.29,9.24,9.25,18.23,18.75,27.34,28.14-6.07,10.34-14,19.62-18.13,31.08-1.94-1.59-4-3.08-5.79-4.79-7.08-6.59-14.14-18.48-21.13-18.42s-14.13,11.82-21,18.64c-17.32,17.17-22.19,17.5-41.78,2.43C666,294.66,675.49,286.52,676.19,274Z"/><path class="cls-4" d="M914.13,225.88l14,18.74c3.95-10.9,2.89-21.35,3.57-31.46,1.18-17.64,7.69-26.24,19.89-24.89,12.54,1.39,17.72,11.82,14.7,29.61-4.35-.23-6.76,2.05-8.87,5.74-16,28-32.22,55.95-48.37,83.9a183,183,0,0,1-31.19-20.24Z"/><path class="cls-5" d="M642.86,704.33c-.16,11.86-9.5,19.48-13.89,29.41-2.37,5.35-5.18,10.48-6.58,16.22-13.32,1.77-16.47,9.83-15,22.16,1.07,9.17.41,18.59.1,27.88-.38,11.09-6.46,17.33-17.5,17.59-12.24.29-24.5-.24-36.74-.42,1.68-13.31,12.67-22.56,15.42-35.41,4.78-2.48,1.84-7.35,3.34-10.85,17.47-13.13,24.54-32.71,32.18-51.94Z"/><path class="cls-7" d="M520,925.17a574,574,0,0,0,102.28-6.44c.53,5.77-2.24,10.27-5.14,15-4.33,7-9.36,13.81-9.87,22.52-33.19,6.08-66.59,5.53-100,3.1-.69-5.69,1.36-10.49,4.54-15.08C515.81,938.46,519.85,932.63,520,925.17Z"/><path class="cls-8" d="M344.16,748.55c10.57-7.57,15.63-18.68,19.65-30.47,5-4.6,10.07-9.05,14.84-13.84,25.76-25.84,25.74-25.87,56-5.94a4.37,4.37,0,0,1,.81,1c-2,12-10.32,20.75-15.91,30.91-7.74-4.77-13.71-3-19.41,4-5,6.19-11.2,11.49-16.91,17.14C367.34,767.11,358.78,766.49,344.16,748.55Z"/><path class="cls-7" d="M663.51,733c.43-11.64,7.41-20.53,12.78-30,7.09-12.55,14.61-24.86,21.74-37.38,2.81-4.93,5.38-9.8,12-9.92-.16,32.31,3.2,64.11,14.05,94.79-6.5.64-8.13,6.45-11.51,10.55-4.93,6-5.88,15.24-14.72,18a162.62,162.62,0,0,1-14-40.32c-2.18-10.39-5.29-15.71-15.74-7.5C666.9,732.13,665.07,732.38,663.51,733Z"/><path class="cls-7" d="M909,307.52c16.15-27.95,32.36-55.87,48.37-83.9,2.11-3.69,4.52-6,8.87-5.74-1.21,30.5-2,61-3.81,91.48-1,16.43-15,23-29.29,14.45C924.85,318.81,917.05,313,909,307.52Z"/><path class="cls-9" d="M784.69,396.66c-9.12,2-10.59,11.14-15.45,17-3.21,3.88-5.22,8.68-11.14,9q-9.11-19.17-18.22-38.34c3-1.11,4.44-3.61,6-6.23q16.3-27.8,32.8-55.49c4.47-7.53,7.57-16.15,16-20.63,15.3,13.55,15.59,21.38,1.54,35.72-8.61,8.79-21.88,16.66-24.15,26.92C770,373.92,780,385.88,784.69,396.66Z"/><path class="cls-10" d="M504.61,817.07c-17.76,1-22.86-3.54-24.24-20.62-1.16-14.25,1.46-28.63-1.67-42.79,3-11.89,12.07-20.76,15.84-32.25,15.16,3.3,20.48,10,21.15,25,.54,11.74-2.31,23.67,1.76,35.23C517,794.79,504.72,803.74,504.61,817.07Z"/><path class="cls-5" d="M914.13,225.88l-36.3,61.4a120.58,120.58,0,0,1-24.94-15.9c3-11.44,9.61-21,15.87-30.81l13.12,7.18,3.39,2.47c1.3-2,.7-3.51-1.32-4.58L866,221.28c7.49-2.72,9.47-10.12,13.45-15.82,2.72-3.9,2.81-10.1,9.32-10.7C897.84,204.65,907.57,214,914.13,225.88Z"/><path class="cls-10" d="M794.65,302c-8.43,4.48-11.53,13.1-16,20.63q-16.46,27.72-32.8,55.49c-1.53,2.62-3,5.12-6,6.23-15.66-21.09-15.43-24.86,2.69-43,4.22-4.22,8.09-8.87,12.72-12.57,7-5.56,7.53-10.44.18-16-2-1.49-3.33-3.81-5-5.75,4.16-11.46,12.06-20.74,18.13-31.08Z"/><path class="cls-11" d="M673.2,905.54c11.11-4,22.16-8.24,33.34-12,10.61-3.62,18.52.4,22.85,10.24,4.23,9.61-.35,19.44-11.46,23.24C697.31,934,677.2,942.77,655.68,947c.19-10.32,7.13-17.49,12.17-25.46C671,916.56,674.33,911.87,673.2,905.54Z"/><path class="cls-11" d="M1037.42,405.93c.56,13-12.17,20.52-13.33,32.78-20.86-5.94-42.44-7.73-63.76-11,.95-13.25,12-21.87,15.58-33.89C996.66,396.58,1017.71,397.85,1037.42,405.93Z"/><path class="cls-6" d="M494.54,721.4c-3.77,11.5-12.88,20.37-15.84,32.26-21-4.61-40.88-12-59.13-23.47,5.58-10.16,13.95-18.89,15.9-30.91C454.49,708.44,474.3,715.48,494.54,721.4Z"/><path class="cls-7" d="M846.34,451.52c-8.38-7.06.18-12.26,2.49-17.58,3.8-8.73,12.23-15.36,11.67-26.1,18.19-6.89,36.8-11.91,56.32-13,.65,4.68-2.88,7.7-4.38,11.52-3.51,8.88-12.15,15.65-11,26.43C882.94,438.6,863.8,442.6,846.34,451.52Z"/><path class="cls-12" d="M901.45,432.76c-1.16-10.78,7.48-17.55,11-26.43,1.5-3.82,5-6.84,4.38-11.52,19.65-3.4,39.33-4.36,59.09-1-3.61,12-14.63,20.64-15.58,33.89C940.58,428,921,430.07,901.45,432.76Z"/><path class="cls-5" d="M520,925.17c-.19,7.46-4.23,13.29-8.23,19.07-3.18,4.59-5.23,9.39-4.54,15.08-19.13-1-38.07-3.15-56.53-8.54,1-12.16,12.87-19.94,13-32.43Z"/><path class="cls-12" d="M673.2,905.54c1.13,6.33-2.17,11-5.35,16-5,8-12,15.14-12.17,25.46a236.19,236.19,0,0,1-48.37,9.18c.51-8.71,5.54-15.53,9.87-22.52,2.9-4.7,5.67-9.2,5.14-15Z"/><path class="cls-6" d="M337.13,872.47,380,893.24c-9.93,7.28-12.25,19.62-19.17,28.9-16.53-5.31-31.6-13.52-46-23.08C325.6,893,327.32,879.35,337.13,872.47Z"/><path class="cls-8" d="M727.28,115.49c5.6-10,12.63-19.3,15.42-30.72,14.38,6.26,28.7,12.64,41.18,22.4.44,12.81-11.73,20.41-13.38,32.36Z"/><path class="cls-9" d="M463.76,918.35c-.15,12.49-12,20.27-13,32.43-15.82-1.88-31-6.26-45.94-11.61,4.28-11.31,9.32-22.15,18.59-30.4Z"/><path class="cls-8" d="M337.13,872.47c-9.81,6.88-11.53,20.55-22.34,26.59a153.81,153.81,0,0,1-35.68-22.65c4-11,8.6-21.64,18.47-28.9Z"/><path class="cls-10" d="M423.39,908.77c-9.27,8.25-14.31,19.09-18.59,30.4-15.1-4.57-30.18-9.19-44-17,6.92-9.28,9.24-21.62,19.17-28.9Z"/><path class="cls-9" d="M888.8,194.76c-6.51.6-6.6,6.8-9.32,10.7-4,5.7-6,13.1-13.45,15.82q-14.19-14.84-28.4-29.65c5.17-10.62,7.45-23.4,20.9-27.78A181.81,181.81,0,0,1,888.8,194.76Z"/><path class="cls-6" d="M770.5,139.53c1.65-12,13.82-19.55,13.38-32.36a199.5,199.5,0,0,1,41.45,28.49c-5.73.27-7.43,5.3-9.87,9-3.94,5.91-6.21,13-12.36,17.33Q786.81,150.73,770.5,139.53Z"/><path class="cls-10" d="M803.1,162c6.15-4.35,8.42-11.42,12.36-17.33,2.44-3.66,4.14-8.69,9.87-9,11.51,8.87,23.84,16.78,33.2,28.19-13.45,4.38-15.73,17.16-20.9,27.78Z"/><path class="cls-11" d="M745.28,852.77a153.12,153.12,0,0,1-28.48-38.29c5.72.17,7.47-4.46,9.88-8.24,4.18-6.56,7.84-13.5,14-18.59l25.54,36.83C752.06,828.62,751.75,843,745.28,852.77Z"/><path class="cls-12" d="M740.66,787.65c-6.14,5.09-9.8,12-14,18.59-2.41,3.78-4.16,8.41-9.88,8.24-8.34-10.75-13.89-23-18.92-35.51,8.84-2.76,9.79-12,14.72-18,3.38-4.1,5-9.91,11.51-10.55C727.72,763.68,735.81,775,740.66,787.65Z"/><path class="cls-13" d="M745.28,852.77c6.47-9.8,6.78-24.15,20.92-28.29,6.33,11.11,18.12,16.83,26.08,26.34-5.17,10.65-14.09,19.3-16.71,31.32A140.63,140.63,0,0,1,745.28,852.77Z"/><path class="cls-8" d="M676.19,274c-.7,12.5-10.16,20.64-15.4,30.87l-35.92-17.64c2-11.8,12.38-19.44,15.44-30.73C652.73,261.4,665.43,265.72,676.19,274Z"/><path class="cls-5" d="M504.61,817.07c.11-13.33,12.34-22.28,12.84-35.47l38.33.18c1.22,14.55-13,22.39-15.39,35.36Z"/><path class="cls-9" d="M868.76,240.57c-6.26,9.77-12.85,19.37-15.87,30.81Q833.44,260,842,245C847.63,235,857.14,233.45,868.76,240.57Z"/><path class="cls-9" d="M540.39,817.14c2.41-13,16.61-20.81,15.39-35.36l12.87,0c-2.75,12.85-13.74,22.1-15.42,35.41C549,818.36,544.67,818.84,540.39,817.14Z"/><path class="cls-14" d="M792.28,850.82c-8-9.51-19.75-15.23-26.08-26.34l-25.54-36.83c-4.85-12.7-12.94-24-16.55-37.23-10.85-30.68-14.21-62.48-14.05-94.79,3.7-16.6,3-33.67,8.19-50.35,11.92-38.2,31.22-71.56,57.62-101.38,19.91-22.5,45-37.56,70.47-52.38,17.46-8.92,36.6-12.92,55.11-18.76,19.54-2.69,39.13-4.81,58.88-5,21.32,3.26,42.9,5,63.76,11,54.07,19.32,98.51,51.18,129.92,99.92,92.48,143.49,12.11,331.23-157.25,367.4-17.94,3.83-21,7.56-21,25.78s-.23,36.66.11,55c.12,6.4-1.43,9.28-8.46,8.87-12.7-.73-28.74,3.85-37.23-2.3s-2-23-2.68-35.17c-.5-9.78-.41-19.61,0-29.4.5-12.77-5.24-20.07-17.78-22.27C865.38,898.8,826.65,879.39,792.28,850.82ZM945,457.36c-33.91.49-65.69,8.76-95,26C785.09,513.23,734.87,599,740.09,671c-1.52,37.06,8.64,71,27.33,102.69a157.21,157.21,0,0,0,36.26,46.84C851.29,867.8,909.41,887.74,975,879.81c125.53-15.18,206.63-126.68,185-250.82-13.76-78.89-80.61-149.57-156.14-165.09A160.07,160.07,0,0,0,945,457.36Z"/><path class="cls-1" d="M901.15,1135.69c0-30.28.28-60.56-.17-90.83-.15-9.93,3.26-13.77,13.29-13.59,24.73.43,49.47.37,74.2,0,9.39-.13,12.8,3.64,12.77,12.91q-.33,92.11,0,184.22c0,9.75-3.34,13.84-13.44,13.66-24.73-.45-49.47-.4-74.19,0-9.56.15-12.69-3.78-12.59-13C901.35,1198,901.15,1166.81,901.15,1135.69Z"/><path class="cls-15" d="M568.65,781.76l-12.87,0-38.33-.18c-4.07-11.56-1.22-23.49-1.76-35.23-.67-14.92-6-21.66-21.15-25-20.24-5.93-40.05-13-59.07-22.13a4.37,4.37,0,0,0-.81-1c-30.27-19.93-30.25-19.9-56,5.94-4.77,4.79-9.88,9.24-14.84,13.84-10.6-10.5-20.78-21.46-31.94-31.32-6.84-6-5.18-9.67.55-14.81,7.29-6.53,14-13.68,20.82-20.76,7.1-7.41,8.16-15.94,2.6-24.5C339.2,601,327.4,573.49,321.4,543.44c-2.14-10.71-9.35-15.7-20.23-15.63-10.23.07-20.47-.28-30.68.11-6.5.24-9.17-1.79-8.94-8.66.44-12.77.5-25.58,0-38.35-.31-7.67,3-9.43,9.84-9.16,10.22.4,20.46.05,30.69.07,9.76,0,16.53-4.25,18.66-14,6.72-30.68,18.22-59.27,35.51-85.6,5.23-8,4.06-16.29-2.86-23.3-7.79-7.88-15.49-15.87-23.55-23.46-4-3.79-4.51-6.79,0-10.27a49.12,49.12,0,0,0,3.65-3.57c9.82-9.47,18.57-24.77,29.75-26.81,12.09-2.22,19.36,16,29.43,24.6,8.32,7.07,16.63,8.22,25.61,2.26a226.59,226.59,0,0,1,80.85-33.6c12-2.43,17.19-10.12,17.34-21.8.13-9.8.31-19.62,0-29.41-.21-6.28,1.45-9.37,8.49-9.13,12.77.44,25.58.43,38.35,0,6.84-.23,8.9,2.42,8.66,8.92-.38,10.21-.3,20.46,0,30.68.3,10.55,5.18,17.53,16,20.11,12.39,3,24.63,6.5,36.94,9.79l35.92,17.64c19.59,15.07,24.46,14.74,41.78-2.43,6.88-6.82,13.95-18.59,21-18.64s14,11.83,21.13,18.42c1.83,1.71,3.85,3.2,5.79,4.79,1.64,1.94,3,4.26,5,5.75,7.35,5.53,6.77,10.41-.18,16-4.63,3.7-8.5,8.35-12.72,12.57-18.12,18.16-18.35,21.93-2.69,43q9.12,19.17,18.22,38.34c13.46,26.9,4.27,45.79-16,67-39,40.76-59.28,91.77-65.32,148.09-.73,12.32-2.26,24.66-1.89,36.94.24,7.94-1.95,12.6-9,16.13-7.94,4-15.39,9-23.06,13.5L604.17,719c-3.34.54-6.73.9-10,1.65-19.46,4.46-22.71,8.54-22.68,28.69,0,7.2.34,14.4.53,21.6C570.49,774.41,573.43,779.28,568.65,781.76ZM471.36,632.07c13.49,8.06,27.81,13.81,43.54,15.65,32.14,6.55,63.15,4.53,92.21-12.2,10.72-3.61,19.47-10.31,28.54-16.89,44.25-32.11,60.87-76.37,58.44-129.39.71-15.64-4.79-29.87-10-44.18-8.81-28.35-28.17-48.58-50.89-66.23-12.85-11.14-27.73-18.31-44.11-22.55-53.45-19.81-118-1.53-159.58,45.23-51,57.31-48.18,153.2,6,202.82C445.31,616.37,457.57,625.2,471.36,632.07Z"/><path class="cls-1" d="M203.76,754.38c-.83-1-3.58-1.37-2.18-3.15,1-1.34,3-.44,3.86,1.28A22.68,22.68,0,0,1,203.76,754.38Z"/><path class="cls-9" d="M572,770.91c-.19-7.2-.52-14.4-.53-21.6,0-20.15,3.22-24.23,22.68-28.69,3.3-.75,6.69-1.11,10-1.65C596.53,738.2,589.46,757.78,572,770.91Z"/><path class="cls-1" d="M884,245.64c2,1.07,2.62,2.55,1.32,4.58l-3.39-2.47Z"/><path class="cls-2" d="M1003.87,463.9C1079.4,479.42,1146.25,550.1,1160,629c21.65,124.14-59.45,235.64-185,250.82-65.62,7.93-123.74-12-171.35-59.26,4.37-11.22,11.33-20.82,18.74-30.14,3.15,2.83,6.32,5.64,9.46,8.49,62.12,56.41,153.59,62.29,221.54,14.22s93.57-137.24,60.29-213.55c-23.71-54.36-65.86-87.6-122.64-103-.42-5,1.85-9.07,4.5-13C999.61,477.56,1003.85,471.62,1003.87,463.9Z"/><path class="cls-7" d="M740.09,671c-5.22-72,45-157.79,109.88-187.66,1,9.43-6.91,14.93-9.93,22.57-5.92,15-20.3,26.23-19.59,44.15a207.87,207.87,0,0,0-38.17,67.11c-10.6,1-11.56,11.06-16.3,17.53C757.19,646.71,753.84,662.57,740.09,671Z"/><path class="cls-12" d="M740.09,671c13.75-8.45,17.1-24.31,25.89-36.3,4.74-6.47,5.7-16.5,16.3-17.53-15.45,45.15-8.2,88.41,10.86,130.69-5.31-.8-6.67,3.34-9.24,6.67-5.14,6.65-6.78,16.43-16.48,19.16C748.73,742,738.57,708.08,740.09,671Z"/><path class="cls-12" d="M820.45,550.08c-.71-17.92,13.67-29.15,19.59-44.15,3-7.64,10.92-13.14,9.93-22.57,29.32-17.24,61.1-25.51,95-26,.29,4.92-2.55,8.74-4.64,12.77-4,7.68-10.64,14.11-10.71,23.56-11.9,2.6-23.93,4.4-35.57,8.33C865.3,511.7,841,528,820.45,550.08Z"/><path class="cls-11" d="M929.63,493.69c.07-9.45,6.73-15.88,10.71-23.56,2.09-4,4.93-7.85,4.64-12.77a160.07,160.07,0,0,1,58.89,6.54c0,7.72-4.26,13.66-8.3,19.67-2.65,3.94-4.92,8-4.5,13C970.7,493.37,950.27,491.12,929.63,493.69Z"/><path class="cls-13" d="M767.42,773.71c9.7-2.73,11.34-12.51,16.48-19.16,2.57-3.33,3.93-7.47,9.24-6.67,7.56,15.7,18.73,28.89,29.28,42.53-7.41,9.32-14.37,18.92-18.74,30.14A157.21,157.21,0,0,1,767.42,773.71Z"/><path class="cls-3" d="M435.52,604.33c-54.18-49.62-57-145.51-6-202.82,41.63-46.76,106.13-65,159.58-45.23-.48,4.73-3,8.46-5.73,12.17-4.41,6-8.74,12.17-7,20.35a36.47,36.47,0,0,1-3.78-.47C490.62,369.71,420.4,432.67,430,515.93c2.47,21.42,12.23,39.56,23.7,57.11C447.11,583.16,438,591.84,435.52,604.33Z"/><path class="cls-9" d="M694.09,489.24c2.43,53-14.19,97.28-58.44,129.39-9.07,6.58-17.82,13.28-28.54,16.89,3.44-14.62,12.29-26.5,19.64-39.17,5.66-9.76,13.09-18.83,13.23-31,.71-5.14,4.74-8.32,7.34-12.34a6.41,6.41,0,0,0,6.25-3.43c6.43-10.47,12.41-21.29,19.75-31.09C680.5,508.92,681.9,495.21,694.09,489.24Z"/><path class="cls-10" d="M640,565.37c-.14,12.15-7.57,21.22-13.23,31-7.35,12.67-16.2,24.55-19.64,39.17-29.06,16.73-60.07,18.75-92.21,12.2,4.2-11.31,12.38-20.75,15.36-32.63,11.45-.41,22.91.59,34.35-1.5C596.38,607.79,620.34,590,640,565.37Z"/><path class="cls-6" d="M633.21,378.83c22.72,17.65,42.08,37.88,50.89,66.23-6.12,5.23-11.58,10.87-14.54,18.67a23.27,23.27,0,0,1-11.77,12.78c-7.75-28.29-22.32-52.16-45.7-70.31C622.2,399.45,625.07,387.1,633.21,378.83Z"/><path class="cls-10" d="M657.79,476.51a23.27,23.27,0,0,0,11.77-12.78c3-7.8,8.42-13.44,14.54-18.67,5.2,14.31,10.7,28.54,10,44.18-12.19,6-13.59,19.68-20.77,29.27-7.34,9.8-13.32,20.62-19.75,31.09a6.41,6.41,0,0,1-6.25,3.43C658.49,528.57,661.14,503,657.79,476.51Z"/><path class="cls-6" d="M530.26,615.09c-3,11.88-11.16,21.32-15.36,32.63-15.73-1.84-30-7.59-43.54-15.65,1.35-12.32,9.2-21.19,16.22-30.5C501.1,608.3,515.62,611.89,530.26,615.09Z"/><path class="cls-8" d="M633.21,378.83c-8.14,8.27-11,20.62-21.11,27.37a174.33,174.33,0,0,0-35.78-17.4c-1.69-8.18,2.64-14.31,7-20.35,2.7-3.71,5.25-7.44,5.73-12.17C605.48,360.52,620.36,367.69,633.21,378.83Z"/><path class="cls-8" d="M487.58,601.57c-7,9.31-14.87,18.18-16.22,30.5-13.79-6.87-26.05-15.7-35.84-27.74,2.51-12.49,11.59-21.17,18.16-31.29C463.42,584.4,475.68,592.78,487.58,601.57Z"/><path class="cls-16" d="M822.42,790.41c-10.55-13.64-21.72-26.83-29.28-42.53-19.06-42.28-26.31-85.54-10.86-130.69a207.87,207.87,0,0,1,38.17-67.11C841,528,865.3,511.7,894.06,502c11.64-3.93,23.67-5.73,35.57-8.33,20.64-2.57,41.07-.32,61.44,2.89,56.78,15.39,98.93,48.63,122.64,103,33.28,76.31,7.75,165.4-60.29,213.55S894,855.31,831.88,798.9C828.74,796.05,825.57,793.24,822.42,790.41ZM804,692a108.82,108.82,0,0,0,30.79,22.9A79.88,79.88,0,0,0,865.25,731c6,4.35,13.19,5.67,20,7.58,84,23.39,158.2,5.91,222.15-53.58,11.89-11.06,12.3-19.92,1.41-30.51-44.85-43.63-98.44-65.79-161.3-64.66-16.58-.27-32.88,1.45-48.68,6.79-20.47,3.36-39.08,11.49-56.74,22.09-18.9,9.31-35,22.46-49.64,37.34-8.19,8.32-8,17.47.09,26C796,685.61,800.15,688.66,804,692Z"/><path class="cls-1" d="M487.58,601.57c-11.9-8.79-24.16-17.17-33.9-28.53-11.47-17.55-21.23-35.69-23.7-57.11-9.58-83.26,60.64-146.22,142.56-127.6a36.47,36.47,0,0,0,3.78.47,174.33,174.33,0,0,1,35.78,17.4c23.37,18.15,37.94,42,45.69,70.31,3.35,26.44.7,52.06-10.47,76.52-2.6,4-6.63,7.2-7.34,12.34-19.64,24.65-43.6,42.42-75.37,48.22-11.44,2.09-22.9,1.09-34.35,1.5C515.62,611.89,501.1,608.3,487.58,601.57Z"/><path class="cls-2" d="M947.55,589.78c62.86-1.13,116.45,21,161.3,64.66,10.89,10.59,10.48,19.45-1.41,30.51-64,59.49-138.19,77-222.15,53.58-6.85-1.91-14-3.23-20-7.58,3.19-.72,4.93-3,6.48-5.69,10-17.22,20.15-34.35,30-51.67,1.95-3.44,4.29-5.05,8-5.15.51,2.49,1.13,4.95,1.53,7.45,3.62,22.71,26,37.9,48.94,33.25,22-4.47,36.3-27,31.2-49.31-6.15-26.86-31.4-37.7-61.47-26.38-1.8-7,2.05-12.17,5.55-17.5C940.77,607.83,946.46,599.87,947.55,589.78Zm75.75,108.35c17.33-6.51,30.32-15.07,42.93-24.37,4.43-3.27,5.44-5.61.29-9.31-13-9.32-26.23-18.2-43.6-24.47C1029.84,659.53,1029.49,677.79,1023.3,698.13Z"/><path class="cls-13" d="M947.55,589.78c-1.09,10.09-6.78,18.05-12.11,26.17-3.5,5.33-7.35,10.51-5.55,17.5-11.93,8.67-18.45,20.45-20.2,35-3.71.1-6.05,1.71-8,5.15-9.81,17.32-20,34.45-30,51.67-1.55,2.67-3.29,5-6.48,5.69a79.88,79.88,0,0,1-30.5-16.07c0-12.63,10.64-20.9,13.38-32.42,6.63,4.13,13.07,8.62,20,12.24,3.84,2,11.71,5.56,9.42-3.53-4.4-17.45-1.67-34.18,1-51.17-.22-7.6,4.17-13.29,7.88-19.29,4.79-7.72,11.07-14.68,12.51-24.14C914.67,591.23,931,589.51,947.55,589.78Z"/><path class="cls-11" d="M848.13,682.46c-2.74,11.52-13.33,19.79-13.38,32.42A108.82,108.82,0,0,1,804,692q15.63-26.7,31.25-53.42c3.6-6.17,8.26-12,6.92-19.9,17.66-10.6,36.27-18.73,56.74-22.09-1.44,9.46-7.72,16.42-12.51,24.14-3.71,6-8.1,11.69-7.88,19.29-9.64,5.16-19.62,9.79-28.85,15.6C829.48,668.26,829.64,668.5,848.13,682.46Z"/><path class="cls-12" d="M842.13,618.66c1.34,7.9-3.32,13.73-6.92,19.9Q819.61,665.29,804,692c-3.81-3.32-7.92-6.37-11.38-10-8.06-8.49-8.28-17.64-.09-26C807.15,641.12,823.23,628,842.13,618.66Z"/><path class="cls-14" d="M909.69,668.44c1.75-14.54,8.27-26.32,20.2-35,30.07-11.32,55.32-.48,61.47,26.38,5.1,22.29-9.17,44.84-31.2,49.31-23,4.65-45.32-10.54-48.94-33.25C910.82,673.39,910.2,670.93,909.69,668.44Z"/><path class="cls-14" d="M1023.3,698.13c6.19-20.34,6.54-38.6-.38-58.15,17.37,6.27,30.58,15.15,43.6,24.47,5.15,3.7,4.14,6-.29,9.31C1053.62,683.06,1040.63,691.62,1023.3,698.13Z"/><path class="cls-14" d="M848.13,682.46c-18.49-14-18.65-14.2,1.5-26.86,9.23-5.81,19.21-10.44,28.85-15.6-2.63,17-5.36,33.72-1,51.17,2.29,9.09-5.58,5.55-9.42,3.53C861.2,691.08,854.76,686.59,848.13,682.46Z"/></svg>