<svg id="Слой_1" data-name="Слой 1" xmlns="http://www.w3.org/2000/svg" viewBox="0 0 2782.48 1637.1"><defs><style>.cls-1{fill:#e7f3fe;}.cls-2{fill:#75a1de;}.cls-3{fill:#f09959;}.cls-4{fill:#e38540;}.cls-5{fill:#a2dff2;}.cls-6{fill:#96cfe0;}.cls-7{fill:#fff;}.cls-8{fill:#6791c9;}.cls-9{fill:#95bef5;}.cls-10,.cls-11{fill:#2e5b9a;}.cls-11{opacity:0.5;}.cls-12{fill:#9ec8ff;}.cls-13{fill:#f39892;}.cls-14{fill:#9cd499;}.cls-15{fill:#74b570;}</style></defs><path class="cls-1" d="M349.29,1586.43s-544.86-981.27-137-1210.24c325.39-182.67,610.83,137,959.06-85.63C1620.6,3.33,1961.17,195.63,2204.6,553.16,2387.28,821.47,2484,995,2575.67,1204c142.71,325.39-159.85,399.61-159.85,399.61Z"/><path class="cls-2" d="M1854.75,1592.84l-248.41.45c-3.54,0-6.5-3.6-6.7-8s2.42-8.27,5.94-8.59L1853,1554.47c20.09-1.8,38.39,6,38.91,17.45S1874.92,1592.8,1854.75,1592.84Z"/><path class="cls-3" d="M1533.12,1557.67c8.56-2.14,24.26-49,24.26-49s-179.38-60.49-255.46-99.91l-106,122.6C1332.08,1565.28,1526.77,1559.25,1533.12,1557.67Z"/><path class="cls-3" d="M1505.53,1490.11c44.14,11.42,114.38-17.12,127.5-14.27s68,31.4,81.13,45.67,59.66,58.52,51.31,61.37-66.82-40-74-41.39-10.74,8.56-69.2,20-129.14-18.07-129.14-18.07Z"/><path class="cls-4" d="M1575.76,1534.35s68-17.12,76.36-14.27,59.06,14.27,94.26,54.24c-33.41-10-81.13-12.85-94.26-12.85S1575.76,1534.35,1575.76,1534.35Z"/><path class="cls-3" d="M1592,1505.81c29,37.11,102.76,48.53,113.93,61.37s-26.86,7.39-46.91,5.71c-51.06-4.28-86.73,16.41-128.06,3.57s-50.66-43.53-50.66-43.53Z"/><path class="cls-5" d="M1047.75,847.11c-131,64.37-190.93,111.46-231.61,287s-42.81,342.51-21.4,466.66c145.39,4.22,562.13,19.92,562.13,19.92s-7.94-254.91-50.52-456.61c-40.67-192.65-98.47-267.58-147.71-301.83S1047.75,847.11,1047.75,847.11Z"/><path class="cls-6" d="M1079.44,1444.5c-47-47.09-34.25-366-111.31-509.47L824.71,1202.61l-43.36,222.63c-.37,64.31,4.44,123.66,13.39,175.52a5.69,5.69,0,0,0,6.13,4.68c118.4-10.36,125-61.82,503.19-118.91C1313,1485.18,1111.39,1476.54,1079.44,1444.5Z"/><path class="cls-7" d="M1035.28,847.18c-16.6,38.72,17.12,89.43,70.41,129.39s85.63,18.08,82.77-13.32-5.71-64.7-18.08-84.68-111.31-37.1-111.31-37.1S1038.13,840.51,1035.28,847.18Z"/><path class="cls-3" d="M1098.55,653.07l-50.8,194a44.43,44.43,0,0,0,3.7,39.38c20.69,33.42,65.19,97.63,97,89.13,42.82-11.42,14.27-91.34,14.27-91.34L1219.86,683Z"/><path class="cls-4" d="M1176.39,665.05l-50.72-20.53-15.24,39.61c7,168.66,28.47,237.49,61.46,256.68,1.78-26-9.12-56.53-9.12-56.53l41.39-149.87Z"/><path class="cls-3" d="M1317.26,741.07c-9.9,67-36.29,124.38-84.13,117.31s-130-63.12-120.09-130.1,117.28-147.19,165.13-140.12S1327.15,674.09,1317.26,741.07Z"/><path class="cls-3" d="M953.14,992.82c3.82-15.21-57.11-24.3-66.8-12-95.86,121.9-245,451.23-211.48,510.74,38.53,68.5,453.66-21.46,462.22-23.6s-15-66.36-15-66.36-232.63,4.28-271.88-22.12C972.24,1150.46,924.24,1108.09,953.14,992.82Z"/><path class="cls-5" d="M929.6,924.32c-100.69,45.14-209.79,338.22-209.79,338.22S745.5,1269,829,1296.79c34.7,11.57,68.33,22.3,68.33,22.3s79.92-103.71,105.06-185C1034.76,1029.41,991.68,896.49,929.6,924.32Z"/><path class="cls-7" d="M730.61,1235c94.18,12.14,150.45,44.93,179,67.33,4.3-6,9.5-13.35,15.25-21.8C905.09,1262,862,1228.9,799.32,1220.14c-25.45-3.56-44.82-5.85-59.53-7.32C736.31,1221.07,733.24,1228.54,730.61,1235Z"/><path class="cls-7" d="M752.22,1184q-2.43,5.49-4.69,10.71c82.72-3.31,162.09,37,182.14,61.59l6.27,7.7q3.12-4.77,6.32-9.81c-13.57-13.36-37.67-34.82-62.07-45.47C830.25,1186.93,758.65,1184.2,752.22,1184Z"/><polygon class="cls-2" points="1306.91 1485.6 1201.31 1485.6 1185.61 1288.4 1324.04 1288.4 1306.91 1485.6"/><path class="cls-3" d="M1109.25,1402.34c29.26-.71,77.07-34.25,93.48-43.53s109.18-29.25,113.46-19.26-77.78,30.68-77.78,30.68l61.37,2.86s17.84,27.11,19.27,45-5.71,43.53-5.71,43.53l-27.12-24.26s-22.12,12.13-50,28.54-77.78,6.42-99.19,2.14-71.36-20-71.36-20Z"/><path class="cls-4" d="M726.77,1393.07s47.34-27.36,94.91-20.7c27.26,3.82,30.22,8.26,28.54,7.14q8.84-16.59,16.51-31.9C841.94,1348.76,778.4,1355.46,726.77,1393.07Z"/><path class="cls-8" d="M2220.89,1057v486c0,16.16-15.22,29.26-34,29.26h-102c-17.41,0-31.53,12.14-31.53,27.11h146.83c31.62,0,57.24-22,57.24-49.24V1057Z"/><path class="cls-9" d="M2146.27,1473.15l-16.2-3.09c-10.69-2-17.5-11.23-15.14-20.42l127-493.27c2.37-9.2,13.05-15.06,23.74-13l16.2,3.09c10.69,2,17.5,11.22,15.14,20.42l-127,493.27C2167.64,1469.32,2157,1475.18,2146.27,1473.15Z"/><path class="cls-2" d="M2150.69,1474l-1.9-.36c-8.26-1.58-13.52-8.67-11.69-15.78L2266,957c1.82-7.1,10.08-11.63,18.33-10.06l1.91.37c8.26,1.57,13.52,8.67,11.69,15.77L2169,1463.94C2167.2,1471,2159,1475.56,2150.69,1474Z"/><path class="cls-10" d="M2488.72,1627.44H307.62a18.27,18.27,0,1,1,0-36.54h2181.1a18.27,18.27,0,0,1,0,36.54Z"/><path class="cls-3" d="M1120.54,569.39c-98.82,61.3-36.28,127.6-62.55,241.44,16.15,5.53,33.78-26.27,45-51.29s21.27-61.3,25-60,10,57.55,10,57.55l15,7.51s21.27-37.54,20-46.29S1154.32,667,1175.59,647c13.66-12.86,70.05,15,70.05,15l-55-78.82Z"/><path class="cls-11" d="M1120.54,569.39c-98.82,61.3-36.28,127.6-62.55,241.44,16.15,5.53,33.78-26.27,45-51.29s21.27-61.3,25-60,10,57.55,10,57.55l15,7.51s21.27-37.54,20-46.29S1154.32,667,1175.59,647c13.66-12.86,70.05,15,70.05,15l-55-78.82Z"/><path class="cls-10" d="M1337,635.69c-5,60-98.08,41.26-141.36-12.5-41.28-51.3-75.24-15.94-116.34,1.25-68.8,28.77,8.76-137.61,147.62-111.34C1331.06,532.81,1340.29,595.72,1337,635.69Z"/><path class="cls-3" d="M1130.07,699.46c4.27,22.4-4.09,42.81-18.69,45.59s-29.88-13.12-34.15-35.52,4.1-42.8,18.69-45.58S1125.81,677.07,1130.07,699.46Z"/><rect class="cls-12" x="1689.52" y="532.56" width="503.05" height="299.69" rx="5.07"/><rect class="cls-7" x="1704.94" y="580.76" width="472.22" height="242.31" rx="4.42"/><rect class="cls-7" x="1710.31" y="549.48" width="18.75" height="16.88" rx="2.06"/><rect class="cls-7" x="1744.4" y="549.48" width="18.75" height="16.88" rx="2.06"/><rect class="cls-7" x="1778.49" y="549.48" width="18.75" height="16.88" rx="2.06"/><path class="cls-12" d="M2161.15,808.79H1721V595h440.2Zm-438.62-1.58h437V596.61h-437Z"/><rect class="cls-12" x="1721.74" y="764.77" width="438.62" height="1.58"/><rect class="cls-12" x="1721.74" y="722.34" width="438.62" height="1.58"/><rect class="cls-12" x="1721.74" y="679.9" width="438.62" height="1.58"/><rect class="cls-12" x="1721.74" y="637.47" width="438.62" height="1.58"/><rect class="cls-12" x="2096.91" y="595.82" width="1.58" height="212.17"/><rect class="cls-12" x="2034.25" y="595.82" width="1.58" height="212.17"/><rect class="cls-12" x="1971.59" y="595.82" width="1.58" height="212.17"/><rect class="cls-12" x="1908.93" y="595.82" width="1.58" height="212.17"/><rect class="cls-12" x="1846.27" y="595.82" width="1.58" height="212.17"/><rect class="cls-12" x="1783.61" y="595.82" width="1.58" height="212.17"/><path class="cls-13" d="M2144,622.62H2129.2a10.23,10.23,0,0,1,0-20.46H2144a10.23,10.23,0,0,1,0,20.46Z"/><rect class="cls-13" x="2118.97" y="687.79" width="35.2" height="20.45" rx="2.47"/><rect class="cls-12" x="1790.72" y="644.27" width="48.52" height="30.21" rx="3.53"/><rect class="cls-7" x="1797.56" y="648.52" width="34.85" height="21.7" rx="2.54"/><rect class="cls-12" x="2041.91" y="771.28" width="48.52" height="30.21" rx="3.53"/><rect class="cls-7" x="2048.74" y="775.54" width="34.85" height="21.7" rx="2.54"/><path class="cls-12" d="M1962,653.07h-27.12a3.33,3.33,0,1,1,0-6.66H1962a3.33,3.33,0,0,1,0,6.66Z"/><path class="cls-12" d="M1962,663.53h-27.12a3.33,3.33,0,1,1,0-6.66H1962a3.33,3.33,0,0,1,0,6.66Z"/><path class="cls-12" d="M1902,779.37h-27.11a3.33,3.33,0,0,1,0-6.66H1902a3.33,3.33,0,0,1,0,6.66Z"/><path class="cls-12" d="M1902,789.83h-27.11a3.33,3.33,0,1,1,0-6.65H1902a3.33,3.33,0,1,1,0,6.65Z"/><path class="cls-12" d="M1761.47,700.16h-27.12a3.33,3.33,0,1,1,0-6.66h27.12a3.33,3.33,0,0,1,0,6.66Z"/><path class="cls-12" d="M1761.47,710.63h-27.12a3.33,3.33,0,1,1,0-6.66h27.12a3.33,3.33,0,0,1,0,6.66Z"/><path class="cls-12" d="M2023.35,653.07h-27.11a3.33,3.33,0,1,1,0-6.66h27.11a3.33,3.33,0,1,1,0,6.66Z"/><path class="cls-12" d="M2023.35,663.53h-27.11a3.33,3.33,0,1,1,0-6.66h27.11a3.33,3.33,0,1,1,0,6.66Z"/><rect class="cls-14" x="1790.01" y="730.14" width="52.8" height="30.67" rx="3.21"/><path class="cls-7" d="M1813.57,755.75h-.11a3.13,3.13,0,0,1-2.25-1.07l-7.52-8.54a3.15,3.15,0,1,1,4.74-4.16l5.31,6,13.68-13.39a3.15,3.15,0,1,1,4.41,4.51l-16,15.71A3.14,3.14,0,0,1,1813.57,755.75Z"/><rect class="cls-14" x="1977.68" y="600.98" width="52.8" height="30.67" rx="3.21"/><path class="cls-7" d="M2001.25,626.59h-.12a3.13,3.13,0,0,1-2.25-1.07l-7.51-8.53a3.15,3.15,0,0,1,4.73-4.17l5.32,6,13.67-13.38a3.15,3.15,0,1,1,4.41,4.51l-16,15.71A3.17,3.17,0,0,1,2001.25,626.59Z"/><path class="cls-12" d="M2016.93,744.4a14.27,14.27,0,1,1-14.27-14.27A14.27,14.27,0,0,1,2016.93,744.4Z"/><path class="cls-12" d="M1832.11,787.93a14.27,14.27,0,1,1-14.27-14.27A14.27,14.27,0,0,1,1832.11,787.93Z"/><rect class="cls-12" x="1618.59" y="788.87" width="301.22" height="172.25" rx="4.94"/><rect class="cls-7" x="1625.2" y="796.46" width="288.01" height="157.08" rx="4.62"/><rect class="cls-12" x="1633.16" y="806.09" width="272.1" height="137.82" rx="5.19"/><circle class="cls-7" cx="1769.2" cy="875" r="47.82"/><path class="cls-12" d="M1810.38,875a41.18,41.18,0,1,1-41.17-41.18A41.18,41.18,0,0,1,1810.38,875Z"/><polygon class="cls-7" points="1789.5 872.8 1774.45 881.49 1759.4 890.18 1759.4 872.8 1759.4 855.42 1774.45 864.11 1789.5 872.8"/><path class="cls-12" d="M1599.48,376.19H1411.1a8.56,8.56,0,1,1,0-17.12h188.38a8.56,8.56,0,1,1,0,17.12Z"/><path class="cls-12" d="M2091.86,1099.77H1903.47a8.57,8.57,0,0,1,0-17.13h188.39a8.57,8.57,0,0,1,0,17.13Z"/><path class="cls-12" d="M2091.86,1131.17H1903.47a8.57,8.57,0,0,1,0-17.13h188.39a8.57,8.57,0,0,1,0,17.13Z"/><path class="cls-12" d="M2091.86,1165.42H1903.47a8.57,8.57,0,0,1,0-17.13h188.39a8.57,8.57,0,0,1,0,17.13Z"/><path class="cls-12" d="M1720.79,409H1411.1a8.57,8.57,0,0,1,0-17.13h309.69a8.57,8.57,0,1,1,0,17.13Z"/><path class="cls-15" d="M383.73,883.63c-49.23,45-27.83,89.9,8.57,173.39s42.81,391.73,42.81,391.73l-30-4.28s4.28-316.81-36.39-402.44S311,913.59,274.56,941.43,383.73,883.63,383.73,883.63Z"/><path class="cls-14" d="M410.78,825.42c-6-26.64-41.49-55.46-89-79.91,7.06,39.29,29.69,103.53,6.27,116.71C296.48,880,325,790.29,312.81,741c-44.59-21.77-98.23-39.57-147.62-48.42.07.18.12.35.2.54,27.83,70.64,64.22,98.47,49.23,109.17-11.27,8.05-48-73.54-96.48-115.37-36.39-1.94-67.18,3-85.4,17.41C4.59,726.61-14.31,746.38,14,814.25c16.18,11.56,37.13,19.85,61.47,22.28,64.22,6.42,94.19,8.56,49.24,30-22,10.48-58.92-.59-88.83-7.34,9.7,17.89,21.63,38.13,36.13,61.18a227,227,0,0,0,30.09,38.29c20.69,4,38.74,4,48.29-.08,30-12.84,107-53.52,126.3-36.39,18.86,16.76-142.72,27.37-131.52,70,78.31,45.12,167.93,23.65,183.77-17.78C350.23,918.71,428.78,905.61,410.78,825.42Z"/><path class="cls-15" d="M248.87,1129.8c85.63-64.22,173.39-4.28,218.35,64.22s12.84,222.63,12.84,222.63-17.12,0-17.12-6.42,47.09-182-64.22-261.16c-69.64-49.55-119.88-25.69-126.3-2.14s27.83,66.36,27.83,66.36Z"/><path class="cls-14" d="M445.81,997.79c-85.62,0-113.45,132.72-89.91,209.78s55.66,220.49,55.66,220.49L433,1406.65s-81.35-201.22-62.08-291.12,66.36-104.89,74.92-104.89S445.81,997.79,445.81,997.79Z"/><path class="cls-15" d="M374,1208.17a62.2,62.2,0,0,0-22.54-18.94,168.39,168.39,0,0,0,4.44,18.34c10.73,35.12,23.24,84,33.68,126.82.94-5.48,2.41-13.93,4.66-27,.54-3.08.95-6.42,1.25-10C387.1,1268.94,379.18,1237.87,374,1208.17Z"/><path class="cls-14" d="M350.58,1208.82c-162.68-68.51-77-162.5-220.39-100.43-10.11,4.38-22.42,15.4-34.74,30.61,12.77,3.62,28.24,6.22,45.44,3.65,42.81-6.43,27.83,27.82-42.81,36.38-13.32,1.62-24.12,3.84-33.11,7-33.65,64.64-48.82,149.69,22.4,179.25,14,5.82,31.38,9.16,50.69,10.4,22-17.47-5.36-118.54,28.52-104.59,32.53,13.4-10.2,86.65-4.34,105.1,32.11-.58,67.65-5.82,101.63-14.24,13.44-7.54,23.7-17.64,26.86-30.92,10.71-45-59.93-72.78-62.08-111.31-2-35.42,25.9,77.93,99.71,94.61C395.1,1283.14,426.63,1240.84,350.58,1208.82Z"/><path class="cls-14" d="M466.5,1087.7c-17.12-36.39,27.83-45,25.69-17.12-1.89,24.65-2.1,84.59,23.19,100.92,43.61-4.73,103-22.3,147.81-49.1a18.1,18.1,0,0,0-1.89-11.15c-19.26-38.53-143.42-70.64-104.89-83.49,30.69-10.23,84.46,50.15,127.79,80.56,26-19.74,43.46-43.28,43.46-69.55,0-35.57-43.21-75.82-99.09-95.07-25.15,2.54-48.51,16.29-85,37-53.91,30.54-41.44-18.84,9.53-48.15-44,2.27-87.87,21.07-120.22,66,0,0,3.06,19.2-17.26,48.89-55.43,81,8.54,128.3,85,125.23C496.3,1151.27,478.34,1112.84,466.5,1087.7Z"/><path class="cls-15" d="M254,1126.17c-41.86,32.35-88.36,70.17-145.45,95.86S62.9,1331.44,62.9,1331.44s-8.56-72.3,39-97,79-54.24,115.13-59.94S273.17,1163,273.17,1163s-11.42-22.84-4.76-31.4S254,1126.17,254,1126.17Z"/><path class="cls-15" d="M47.68,746.31C200.86,787.22,313.13,885.22,334.06,909S355,939.45,355,939.45L338.82,969.9l-7.61-3.81s12.37-25.69-20-59c-55.79-57.43-123.69-102.76-170.31-122.74S47.68,746.31,47.68,746.31Z"/><path class="cls-13" d="M336.64,1384.39H545.86a0,0,0,0,1,0,0V1556a38.23,38.23,0,0,1-38.23,38.23H374.87A38.23,38.23,0,0,1,336.64,1556V1384.39A0,0,0,0,1,336.64,1384.39Z"/></svg>