<svg id="Layer_1" data-name="Layer 1" xmlns="http://www.w3.org/2000/svg" viewBox="0 0 892.16 892.16"><defs><style>.cls-1{fill:#fefefe;}.cls-2{fill:#0277b6;}.cls-3{fill:#e0f3f6;}.cls-4{fill:#ed4137;}</style></defs><path class="cls-1" d="M446.11,892q-219,0-437.94.15c-6.26,0-8.18-1-8.17-7.84Q.33,445.91,0,7.48C0,1,1.57,0,7.66,0Q446,.27,884.41,0c5.87,0,7.75.7,7.75,7.39q-.35,438.84,0,877.7c0,6.1-1.4,7.06-7.21,7Q665.52,891.86,446.11,892ZM28,389.75A365.3,365.3,0,0,0,36.87,470C71.92,627.63,210.73,745,372,752.22c92.35,4.15,175-22.9,247-81.24,5.85-4.75,8.65-4.24,13.77.91Q722,761.8,811.8,851.2a89.78,89.78,0,0,0,6.9,6.63A27.61,27.61,0,0,0,862.81,844c3.49-11.91-.75-21.38-9.21-29.83q-90.93-90.72-181.8-181.48c-5.21-5.17-5.41-7.91-.79-13.76,74.91-95,99.69-201.95,69.77-319C691.14,105.63,495-9.69,301,39,141.49,79.08,28.4,224.42,28,389.75Z"/><path class="cls-2" d="M28,389.75C28.4,224.42,141.49,79.08,301,39c194-48.72,390.17,66.6,439.81,260.85C770.7,417,745.92,523.94,671,618.92c-4.62,5.85-4.42,8.59.79,13.76q91.13,90.51,181.8,181.48c8.46,8.45,12.7,17.92,9.21,29.83a27.61,27.61,0,0,1-44.11,13.84,89.78,89.78,0,0,1-6.9-6.63q-89.59-89.58-179-179.31c-5.12-5.15-7.92-5.66-13.77-.91-72,58.34-154.66,85.39-247,81.24C210.73,745,71.92,627.63,36.87,470A365.3,365.3,0,0,1,28,389.75Zm55.76,0C83.4,558.49,220.35,696.2,389.28,696.89s307.17-136.69,307.59-306c.41-168.8-136.53-306.48-305.49-307.15S84.2,220.46,83.8,389.71Z"/><path class="cls-3" d="M83.8,389.71c.4-169.25,138.49-306.6,307.58-305.93s305.9,138.35,305.49,307.15c-.42,169.27-138.53,306.65-307.59,306S83.4,558.49,83.8,389.71ZM536.49,271.15c-.87-10.86-5.91-19.87-16.91-24.52-11.63-4.91-22.22-2.6-31.14,6.29-30.63,30.52-61.29,61-91.63,91.82-4.91,5-7.43,5.63-12.71.24-29.87-30.46-60.24-60.41-90.32-90.66-7.45-7.5-16-11.66-26.58-9.58-10.8,2.11-18.27,8.49-21.59,19.17-3.44,11.08-.43,20.58,7.61,28.63,30.14,30.19,60.15,60.5,90.61,90.36,5.75,5.64,6.6,8.5.31,14.62-30.33,29.57-60,59.79-90.07,89.67-7.52,7.48-11.46,16.08-9.23,26.67,2.27,10.78,8.72,18.11,19.46,21.3,11.18,3.33,20.56,0,28.56-8,30-29.94,60.17-59.67,89.7-90,6.59-6.79,9.8-5.87,15.86.32,29.22,29.88,59,59.19,88.45,88.83,7.45,7.5,15.95,11.69,26.56,9.61,10.79-2.12,18.28-8.43,21.61-19.14,3.44-11.09.46-20.61-7.56-28.65-30.34-30.4-60.6-60.88-91.2-91-5.17-5.09-6.07-7.71-.3-13.35,30.3-29.61,60-59.81,90.07-89.68C532.3,287.87,536.33,280.88,536.49,271.15Z"/><path class="cls-4" d="M536.49,271.15c-.16,9.73-4.19,16.72-10.44,22.94C496,324,466.28,354.16,436,383.77c-5.77,5.64-4.87,8.26.3,13.35,30.6,30.13,60.86,60.61,91.2,91,8,8,11,17.56,7.56,28.65-3.33,10.71-10.82,17-21.61,19.14-10.61,2.08-19.11-2.11-26.56-9.61-29.45-29.64-59.23-58.95-88.45-88.83-6.06-6.19-9.27-7.11-15.86-.32-29.53,30.37-59.73,60.1-89.7,90-8,8-17.38,11.29-28.56,8-10.74-3.19-17.19-10.52-19.46-21.3-2.23-10.59,1.71-19.19,9.23-26.67,30-29.88,59.74-60.1,90.07-89.67,6.29-6.12,5.44-9-.31-14.62-30.46-29.86-60.47-60.17-90.61-90.36-8-8.05-11.05-17.55-7.61-28.63,3.32-10.68,10.79-17.06,21.59-19.17,10.6-2.08,19.13,2.08,26.58,9.58,30.08,30.25,60.45,60.2,90.32,90.66,5.28,5.39,7.8,4.74,12.71-.24,30.34-30.81,61-61.3,91.63-91.82,8.92-8.89,19.51-11.2,31.14-6.29C530.58,251.28,535.62,260.29,536.49,271.15Z"/></svg>