<svg id="Layer_1" data-name="Layer 1" xmlns="http://www.w3.org/2000/svg" viewBox="0 0 1063.79 1063.79"><defs><style>.cls-1{fill:#fdfdfd;}.cls-2{fill:#040405;}.cls-3{fill:#eef9fc;}.cls-4{fill:#80bbe8;}.cls-5{fill:#9acbf8;}.cls-6{fill:#a9d992;}.cls-7{fill:#8acc74;}.cls-8{fill:#d7ebfc;}.cls-9{fill:#030303;}.cls-10{fill:#040607;}.cls-11{fill:#fbc043;}.cls-12{fill:#fdebe3;}.cls-13{fill:#7e8993;}.cls-14{fill:#fbd6c8;}.cls-15{fill:#5d6a74;}.cls-16{fill:#f67d83;}</style></defs><path class="cls-1" d="M431.38.23q311.34,0,622.7-.18c7.46,0,9.72,1.18,9.71,9.33q-.39,522.75,0,1045.48c0,7.67-1.8,8.93-9.09,8.93q-522.71-.32-1045.42,0c-6.89,0-9.28-.67-9.27-8.74Q.42,531.75.05,8.49C0,1.35,1.48-.17,8.56,0c22.09.58,44.2.22,66.3.22C59,5.77,50.34,16.45,50.38,33.82c.12,55.42,0,110.84.08,166.25,0,12.62,3.35,16.53,16.11,20.08q0,16.56,0,33.11c-13.79,4.25-16.16,7.63-16.16,23.41v683c0,2.08-.08,4.15,0,6.22,1,19.26,13.26,31.15,32.62,31.33,15.54.15,31.1.42,46.62-.14,7-.25,11.09,2.23,15.26,7.72,46.72,61.6,133.76,75.14,196.79,30.55,6.38-4.51,12.53-6.11,20.05-6.1q308.3.18,616.6.08c26,0,37.06-11.12,37.07-37.23q0-74.1,0-148.2c0-28.2-10.68-39-38.62-39-72.88,0-145.77-.13-218.66.18-7.58,0-10.14-1.52-9.73-9.53a389.65,389.65,0,0,0,0-43.5c-.58-9.67,1.65-12.63,12-12.55,73.58.53,147.16.33,220.73.25,21.81,0,34-12.28,34.24-34,.1-11.06.07-22.11,0-33.17-.07-13.71-2.79-17.3-16-21.49q0-18.3,0-36.6c12-1.94,15.82-6.16,16-18.47.17-13.81,0-27.62,0-41.44,0-29-10.31-39.39-39.17-39.4q-102.56,0-205.11,0c-22.56,0-22,0-22.8-22.3-.38-9.74,3-11,11.56-11,72.86.33,145.72.23,218.58.17,26,0,36.93-11.21,36.93-37.38q0-74.6,0-149.18c0-26.77-11-37.86-37.58-37.86-72.86,0-145.72-.16-218.58.19-8.33,0-11-1.53-10.87-10.49.51-48.34.24-96.69.24-145,0-27.06-10.55-37.74-37.31-37.74-66.3,0-132.6-.13-198.89.17-7.21,0-12.12-2.13-17-7.22-13.86-14.45-28.35-28.3-42.32-42.65C446.85,8.4,440.13,2.88,431.38.23Z"/><path class="cls-2" d="M999.47,651.09c13.19,4.19,15.91,7.78,16,21.49.07,11.06.1,22.11,0,33.17-.2,21.68-12.43,33.94-34.24,34-73.57.08-147.15.28-220.73-.25-10.39-.08-12.62,2.88-12,12.55a389.65,389.65,0,0,1,0,43.5c-.41,8,2.15,9.56,9.73,9.53,72.89-.31,145.78-.19,218.66-.18,27.94,0,38.61,10.8,38.62,39q0,74.1,0,148.2c0,26.11-11,37.23-37.07,37.23q-308.29,0-616.6-.08c-7.52,0-13.67,1.59-20.05,6.1-63,44.59-150.07,31-196.79-30.55-4.17-5.49-8.24-8-15.26-7.72-15.52.56-31.08.29-46.62.14-19.36-.18-31.64-12.07-32.62-31.33-.11-2.07,0-4.14,0-6.22v-683c0-15.78,2.37-19.16,16.16-23.41,13.45,4.86,15,7.15,15,23.16q0,338.13,0,676.25c0,2.76.18,5.54,0,8.28-.34,4.25,1.75,5.25,5.57,5.2,11.7-.16,23.41-.06,35-.06a6.09,6.09,0,0,0,.28-1.59c-.77-3.33-1.48-6.68-2.37-10-8.64-32.13-6.25-63.5,6.63-94.09,5.7-13.55,11-16.12,24.84-12.48,8.63,7.79,7.4,16.26,3.29,26.17-30.81,74.3,25.49,158,104.61,156,70.57,1,125.65-66.34,110.84-135.57-11.23-52.49-58.41-91.52-108.81-90-22.58-1.85-43,4.79-61.77,16.67-8.72,5.53-16.55,5.91-24.69-.38-5.46-13.58-3.75-18.75,8.72-26.44a143.42,143.42,0,0,1,159.48,5.67c5.12,3.7,10.12,4.89,16.2,4.88q139.19-.18,278.37-.1c11.36,0,22.73-.3,34.1-.46,13.1.15,26.21.14,39.3.56,4.78.15,6.65-1,6.56-6.23q-.46-26.4,0-52.82c.09-5.18-1.77-6.39-6.56-6.23-13.09.43-26.2.43-39.3.6-19.31-.17-38.62-.42-57.94-.5-25.3-.11-36.67-11.32-36.7-36.68q-.09-75.62,0-151.21c0-25.43,11.17-36.45,36.68-36.69,19.3-.18,38.6-.43,57.91-.65,6.87.22,13.75.6,20.62.62,26.9.08,26.81,0,25.27-26.89-.23-4.08-.73-6.43-5.62-6.27-13.43.46-26.88.56-40.31.8-20-.25-40-.45-60-.74-22.79-.33-34.48-11.77-34.56-34.51q-.24-77.67,0-155.34c.07-22.71,12-34.38,34.58-34.57q30-.27,60-.49c13.42.16,26.85.13,40.26.57,4.89.16,5.56-2,5.55-6.13q-.15-74.94,0-149.88c0-5.28-2-6.24-6.63-6.11-13.07.36-26.16.33-39.24.45-3.79-.12-7.58-.36-11.36-.36-93.56,0-187.11-.16-280.67.16-13,0-23.19-4-32.12-13.37C332.85,67,317.34,52.21,302.44,36.85a17.07,17.07,0,0,0-13.52-5.64q-98.91.28-197.81-.06c-7.58,0-9.83,1.54-9.77,9.52.4,52.82,0,105.64.35,158.46.06,11.31-3.62,18.65-15.12,21-12.76-3.55-16.1-7.46-16.11-20.08-.08-55.41,0-110.83-.08-166.25,0-17.37,8.57-28,24.48-33.59H431.38c8.75,2.65,15.47,8.17,21.77,14.62,14,14.35,28.46,28.2,42.32,42.65,4.88,5.09,9.79,7.25,17,7.22,66.29-.3,132.59-.18,198.89-.17,26.76,0,37.3,10.68,37.31,37.74,0,48.35.27,96.7-.24,145-.1,9,2.54,10.53,10.87,10.49,72.86-.35,145.72-.21,218.58-.19,26.58,0,37.58,11.09,37.58,37.86q0,74.6,0,149.18c0,26.17-11,37.36-36.93,37.38-72.86.06-145.72.16-218.58-.17-8.55,0-11.94,1.25-11.56,11,.85,22.28.24,22.3,22.8,22.3q102.55,0,205.11,0c28.86,0,39.16,10.4,39.17,39.4,0,13.82.13,27.63,0,41.44-.16,12.31-4,16.53-16,18.46-10.86-.45-15-6.93-15-16.94,0-14.8-.13-29.61.05-44.4,0-4.56-.93-7.14-6.19-7-13.73.42-27.47.54-41.2.79a25.92,25.92,0,0,0-4.06-.63q-158,0-316.08-.21c-8,0-8.77,3.4-8.74,9.92.19,47.33.3,94.66-.14,142-.08,8.66,2.4,10.82,10.9,10.79,102.94-.29,205.88-.18,308.83-.21,3.09,0,6.18-.29,9.28-.45,13.38.18,26.78.08,40.14.64,6.29.25,7.47-2.49,7.28-8-.33-9.61.36-19.26-.2-28.85C983.61,660.53,988.34,653.64,999.47,651.09ZM937.18,450.34c7.91.2,15.82.55,23.74.57,23.47.08,23.47,0,23.47-23.74,0-43.14-.17-86.27.17-129.41.05-7.28-2-9.6-9.27-9.21-12.72.68-25.5.46-38.25.61a12.19,12.19,0,0,0-2-.36q-159.4,0-318.81-.24c-7.8,0-8,3.52-8,9.37.13,47.27.35,94.54-.16,141.81-.1,9.22,2.35,11.42,11.45,11.38,102.82-.34,205.64-.21,308.45-.24C931,450.88,934.09,450.53,937.18,450.34ZM937,836.4c-2.75-.15-5.5-.41-8.25-.41Q659.38,836,390,836c-2.76,0-5.51.23-8.26.35-3.82,1-1.27,2.29-.14,3.5,29.56,52.17,30,104.12-1.1,155.87-.23.39.28,1.22.59,2.43h8.07q269.91,0,539.82,0c2.74,0,5.49-.35,8.23-.54,7.91.2,15.83.54,23.74.57,23.47.07,23.47,0,23.47-23.74,0-43.14-.17-86.28.17-129.41.05-7.29-2-9.6-9.27-9.21C962.57,836.46,949.79,836.24,937,836.4ZM339.94,31.34c6.63,6.26,11.56,9.79,15.05,14.41C366.51,61,380.94,66.83,400.33,64.93c18.58-1.82,37.48-.39,59-.39-11.58-11.4-21.12-20.77-30.65-30.17-1.74-1.72-3.47-3.08-6.21-3.07C396,31.38,369.56,31.34,339.94,31.34Z"/><path class="cls-3" d="M66.57,220.15c11.5-2.37,15.18-9.71,15.12-21-.32-52.82,0-105.64-.35-158.46-.06-8,2.19-9.56,9.77-9.52q98.9.47,197.81.06a17.07,17.07,0,0,1,13.52,5.64c14.9,15.36,30.41,30.14,45.19,45.62,8.93,9.35,19.08,13.41,32.12,13.37,93.56-.32,187.11-.18,280.67-.16,3.78,0,7.57.24,11.36.36q0,80.55,0,161.1-30,.24-60,.49c-22.57.19-34.51,11.86-34.58,34.57q-.26,77.67,0,155.34c.08,22.74,11.77,34.18,34.56,34.51,20,.29,40,.49,60,.74q0,15.87,0,31.74c-19.31.22-38.61.47-57.91.65-25.51.24-36.65,11.26-36.68,36.69q-.09,75.6,0,151.21c0,25.36,11.4,36.57,36.7,36.68,19.32.08,38.63.33,57.94.5v64.12c-11.37.16-22.74.45-34.1.46q-139.19,0-278.37.1c-6.08,0-11.08-1.18-16.2-4.88a143.42,143.42,0,0,0-159.48-5.67c-12.47,7.69-14.18,12.86-8.72,26.44C164.88,828,157.51,837.39,151.46,848c-13.82-3.64-19.14-1.07-24.84,12.48-12.88,30.59-15.27,62-6.63,94.09.89,3.29,1.6,6.64,2.37,10a6.09,6.09,0,0,1-.28,1.59c-11.59,0-23.3-.1-35,.06-3.82.05-5.91-.95-5.57-5.2.22-2.74,0-5.52,0-8.28q0-338.13,0-676.25c0-16-1.51-18.3-15-23.16Q66.57,236.71,66.57,220.15ZM328.8,739.73q87.57,0,175.13,0c22.45,0,34.44-12.11,34.62-34.6.08-9.68-.29-19.36.07-29,1.5-39.87-12.46-71.48-48.41-91.42-3.37-1.87-4.08-3.64-2.24-7.18,7.25-13.88,8.35-28.91,8.24-44.27-.23-33.5,0-67-.14-100.52a36.84,36.84,0,0,1,3.86-16.75c7.21-15,8.43-31.51,2-46.26-5.68-13.09-5.78-25.86-5.86-39.18,0-8.29.09-16.58,0-24.87-.77-55-38.72-95.45-93.48-99.34-5.73-.41-10.31-1.8-14.93-5.44a73,73,0,0,0-45.91-16.29c-19.68-.1-39.38-.33-59.06,0-53.16,1-100.54,38.49-115,89.8-6.69,23.81-3.9,48-4.71,72.07-.14,4.42.32,8.73-2,13.08-10.69,20.36-10.94,40.87.36,61.15,2,3.59,1.71,7.3,1.72,11.06q0,52.85,0,105.7c0,12.54.88,25,6.84,36.25,3.74,7,1.32,9.53-4.8,13-23.39,13.46-37.75,33.74-43,60.31-3.4,17.13-.56,34.49-1.84,51.66-2.41,32.46,16.85,41.74,40.61,41.32C216.87,739.05,272.84,739.73,328.8,739.73ZM284.36,80.42a15.54,15.54,0,0,0-14.61-15.8,15.93,15.93,0,0,0-16.38,15.25,15.76,15.76,0,0,0,15.84,15.74A15.41,15.41,0,0,0,284.36,80.42Zm-132.9.18a15.5,15.5,0,0,0-31-1.41,15.5,15.5,0,1,0,31,1.41Zm51.2,15a15.52,15.52,0,0,0,15.25-15.93,15.51,15.51,0,1,0-15.25,15.93Z"/><path class="cls-4" d="M937.07,547c13.73-.25,27.47-.37,41.2-.79,5.26-.17,6.24,2.41,6.19,7-.18,14.79-.1,29.6-.05,44.4,0,10,4.18,16.49,15,16.94q0,18.32,0,36.61c-11.13,2.55-15.86,9.44-15.19,20.89.56,9.59-.13,19.24.2,28.85.19,5.47-1,8.21-7.28,8-13.36-.56-26.76-.46-40.14-.64Z"/><path class="cls-5" d="M937.18,997.58c-2.74.19-5.49.54-8.23.54q-269.91,0-539.82,0h-8.07c-.31-1.21-.82-2-.59-2.43C411.6,944,411.13,892,381.57,839.84c.05-1.17.09-2.33.14-3.5,2.75-.12,5.5-.35,8.26-.35q269.4,0,538.82,0c2.75,0,5.5.26,8.25.41Q937.12,917,937.18,997.58ZM691.44,900.37h217.5a77.41,77.41,0,0,0,10.34-.34c8-1.09,12.29-6.45,12.94-13.95.63-7.14-3-12.54-9.85-15.4-4-1.65-8.11-1.42-12.25-1.42h-435c-4.13,0-8.28-.25-12.26,1.36-6.91,2.79-10.54,8.17-10,15.31.58,7.51,4.82,12.93,12.81,14.06a81.19,81.19,0,0,0,11.37.37ZM674,964.81q97.89,0,195.78,0a66.09,66.09,0,0,0,11.36-.51c7.36-1.28,11.56-6.23,12.27-13.41.77-7.74-2.89-13.49-10.39-15.89a37.53,37.53,0,0,0-11.22-1.26q-198.37-.09-396.74,0a42.67,42.67,0,0,0-11.25,1.13c-7.7,2.12-11.46,8-10.9,15.57s4.89,12.89,12.91,14a86.08,86.08,0,0,0,11.37.4Q575.55,964.84,674,964.81Z"/><path class="cls-5" d="M937.07,547V708.15c-3.1.16-6.19.45-9.28.45-102.95,0-205.89-.08-308.83.21-8.5,0-11-2.13-10.9-10.79.44-47.32.33-94.65.14-142,0-6.52.74-9.94,8.74-9.92q158,.39,316.08.21A25.92,25.92,0,0,1,937.07,547Zm-140.85,63.9H908c16.64,0,24.41-5,24.48-15.55s-7.74-15.65-24.35-15.65q-111.74,0-223.47,0a64.36,64.36,0,0,0-12.35.74c-7.88,1.53-11.83,7.18-11.91,14.76-.08,7.12,3.55,12.68,10.82,14.59a44.89,44.89,0,0,0,11.25,1Q739.32,610.92,796.22,610.86Zm-19.74,33.32q-39.32,0-78.63,0c-7.93,0-15.88-.19-23.78.35-8.53.58-13.2,6.19-13.68,14.23s3.78,13.88,12,15.77a46.11,46.11,0,0,0,10.26.74q94.14.06,188.3,0c4.1,0,8.39-.11,12.24-1.31,7-2.18,10.64-7.69,10.25-15-.41-7.7-4.71-12.85-12.48-14.3a58,58,0,0,0-10.31-.49Q823.56,644.16,776.48,644.18Z"/><path class="cls-5" d="M937.18,450.34c-3.09.19-6.17.54-9.26.54-102.81,0-205.63-.1-308.45.24-9.1,0-11.55-2.16-11.45-11.38.51-47.27.29-94.54.16-141.81,0-5.85.22-9.39,8-9.37q159.4.42,318.81.24a12.19,12.19,0,0,1,2,.36Q937.12,369.76,937.18,450.34ZM796.37,353.13h110.7c3.45,0,6.9,0,10.34-.16,9-.52,13.79-5.88,14.89-14.35,1-7.82-5.44-15.06-14-16.36A55.38,55.38,0,0,0,910,322q-113.81,0-227.61,0a42.06,42.06,0,0,0-10.24.78c-8.09,2.06-12.36,7.81-11.73,16s5.39,13.27,13.88,14.1c3.08.29,6.2.23,9.3.24Zm-19.84,64.44h50.7c16.56,0,33.11.19,49.66-.13,9.93-.2,16.31-6.25,16.64-14.75.36-9-6.11-15.43-16.44-16.21-2.05-.15-4.13,0-6.2,0q-94.15,0-188.31,0a43.82,43.82,0,0,0-11.23,1c-7.7,2.06-11.45,7.88-11,15.48s4.74,12.9,12.72,14.09a72.36,72.36,0,0,0,10.32.47Q730,417.6,776.53,417.57Z"/><path class="cls-6" d="M151.46,848c6-10.57,13.42-20,23.47-27.13,8.14,6.29,16,5.91,24.69.38,18.77-11.88,39.19-18.52,61.77-16.67,2.74,2.05,5.44,4.16,8.23,6.13,41.61,29.43,60.57,70.32,55.47,120.27-4.44,43.48-27.2,77.12-65.73,99.17-79.12,2-135.42-81.68-104.61-156C158.86,864.22,160.09,855.75,151.46,848Zm136,130.61c11.66.13,19.89-9.15,16.56-19.72-5.32-16.93-2.42-30,12.82-39.78a7,7,0,0,0,1.46-1.47c9.18-10.62,5-25.11-9-26.12-18.51-1.33-29.61-8.67-36.2-26.49a14.56,14.56,0,0,0-27.4-.15c-6.77,17.33-17,25.77-36.08,26.66-14.12.67-19.75,16.88-9,25.6,15.05,12.18,19.19,25.08,13.9,43.64-3.51,12.3,10,21.28,22,16a100.73,100.73,0,0,0,14.64-7.64c5.58-3.62,10.36-3.49,16.2-.17C274.12,972.85,280.66,977.67,287.41,978.57Z"/><path class="cls-7" d="M259.36,1030.11c38.53-22,61.29-55.69,65.73-99.17,5.1-50-13.86-90.84-55.47-120.27-2.79-2-5.49-4.08-8.23-6.13,50.4-1.52,97.58,37.51,108.81,90C385,963.77,329.93,1031.14,259.36,1030.11Z"/><path class="cls-4" d="M937.18,450.34q-.07-80.59-.14-161.18c12.75-.15,25.53.07,38.25-.61,7.28-.39,9.32,1.93,9.27,9.21-.34,43.14-.17,86.27-.17,129.41,0,23.77,0,23.82-23.47,23.74C953,450.89,945.09,450.54,937.18,450.34Z"/><path class="cls-4" d="M937.18,997.58Q937.11,917,937,836.4c12.75-.16,25.53.06,38.25-.61,7.28-.39,9.32,1.92,9.27,9.21-.34,43.13-.17,86.27-.17,129.41,0,23.77,0,23.81-23.47,23.74C953,998.12,945.09,997.78,937.18,997.58Z"/><path class="cls-8" d="M671.8,257.14q0-80.55,0-161.1C684.86,95.92,698,96,711,95.59c4.65-.13,6.65.83,6.63,6.11q-.28,74.94,0,149.88c0,4.14-.66,6.29-5.55,6.13C698.65,257.27,685.22,257.3,671.8,257.14Z"/><path class="cls-8" d="M671.8,804.38V740.26c13.1-.17,26.21-.17,39.3-.6,4.79-.16,6.65,1.05,6.56,6.23q-.46,26.42,0,52.82c.09,5.2-1.78,6.38-6.56,6.23C698,804.52,684.9,804.53,671.8,804.38Z"/><path class="cls-8" d="M339.94,31.34c29.62,0,56.07,0,82.51,0,2.74,0,4.47,1.35,6.21,3.07,9.53,9.4,19.07,18.77,30.65,30.17-21.5,0-40.4-1.43-59,.39C380.94,66.83,366.51,61,355,45.75,351.5,41.13,346.57,37.6,339.94,31.34Z"/><path class="cls-8" d="M671.75,514.53q0-15.87,0-31.74c13.43-.24,26.88-.34,40.31-.8,4.89-.16,5.39,2.19,5.62,6.27,1.54,26.93,1.63,27-25.27,26.89C685.5,515.13,678.62,514.75,671.75,514.53Z"/><path class="cls-4" d="M381.71,836.34c0,1.17-.09,2.33-.14,3.5C380.44,838.63,377.89,837.36,381.71,836.34Z"/><path class="cls-9" d="M328.8,739.73c-56,0-111.93-.68-167.87.32-23.76.42-43-8.86-40.61-41.32,1.28-17.17-1.56-34.53,1.84-51.66,5.27-26.57,19.63-46.85,43-60.31,6.12-3.52,8.54-6,4.8-13-6-11.21-6.86-23.71-6.84-36.25q.06-52.85,0-105.7c0-3.76.28-7.47-1.72-11.06-11.3-20.28-11-40.79-.36-61.15,2.28-4.35,1.82-8.66,2-13.08.81-24.07-2-48.26,4.71-72.07,14.41-51.31,61.79-88.79,115-89.8,19.68-.37,39.38-.14,59.06,0a73,73,0,0,1,45.91,16.29c4.62,3.64,9.2,5,14.93,5.44,54.76,3.89,92.71,44.32,93.48,99.34.12,8.29,0,16.58,0,24.87.08,13.32.18,26.09,5.86,39.18,6.41,14.75,5.19,31.26-2,46.26a36.84,36.84,0,0,0-3.86,16.75c.15,33.51-.09,67,.14,100.52.11,15.36-1,30.39-8.24,44.27-1.84,3.54-1.13,5.31,2.24,7.18,35.95,19.94,49.91,51.55,48.41,91.42-.36,9.66,0,19.34-.07,29-.18,22.49-12.17,34.58-34.62,34.6Q416.36,739.82,328.8,739.73Zm38.23-402c-14.41,4.09-29.14,4.64-44,4.42-21.38-.32-42.76-.3-64.14-.21-12,.06-14,2.09-14,13.78-.06,25.86-.22,51.73,0,77.6.43,45.74,36.9,79.35,82.86,76.65,48.7,3.13,84.66-28.36,86.18-76.44.84-26.87.35-53.79,0-80.68-.13-11.88-2.63-23.27-11.18-32.45-2.73-2.92-5-4.26-8.39-.62C386.76,328,376.8,332.74,367,337.75ZM330,708.63c31.07,0,62.14-.14,93.21.12,6,0,8.49-1,8.41-7.82-.37-31.07-.26-62.14-.05-93.21,0-4.55-1.53-6.57-5.64-8.27-15.8-6.56-31.36-13-46.29,1.86-1.37,1.36-3.8,1.6-5.57,2.64-9.08,5.34-23.82,2.52-28.23,11.24-4.31,8.55-.87,20.94-1.15,31.63-.25,10-6,16.35-14.63,16.71-9.07.38-15.77-6-16.28-16.34a219.07,219.07,0,0,1,0-25.88c.46-6.63-1.24-9.89-8.34-10.86-9.59-1.31-19.85-3.64-27-9.77C263.81,588,250,592.51,235,598.85c-5.36,2.27-7.18,4.66-7.12,10.41.29,30,.46,60.07-.08,90.1-.15,8.26,2.78,9.52,10.07,9.43C268.56,708.42,299.29,708.63,330,708.63ZM295.76,310.87V311c14.49,0,29,.25,43.46-.06,27.38-.59,48.35-21.49,48.37-47.83S366.48,216,339.1,215.65c-18.62-.21-37.29-.78-55.86.22-39.14,2.1-66.48,21.86-82.31,57.65-8.42,19-6.32,39.2-6.51,59.12,0,2,.1,4,2.54,5,6.12,2.63,18.84-1.17,22.35-6.75,8.36-13.27,20.17-20.29,36.1-20.09C268.86,311,282.31,310.87,295.76,310.87Zm169.11,187.3q0-23.79,0-47.57c0-4.45.89-9.8-6.36-8.57C453,443,445,438,443.68,449.26c-2.21,19.63-9.56,37.76-23,52-8.79,9.32-11.11,19-10,30.7.17,1.71,0,3.45,0,5.17,0,24.1,0,24.1,22.94,32.18,20.55,7.23,27.73,2.73,30.78-19.5a85.77,85.77,0,0,0,.45-11.35C464.89,525.05,464.86,511.61,464.87,498.17ZM194.46,497c0,14.85,0,29.69,0,44.53a52.69,52.69,0,0,0,7.61,27.55c2.9,4.9,6.29,6.7,11.93,4.49,9.3-3.64,18.73-7,28.21-10.12,4.66-1.54,6.4-4.19,6.29-9.11-.29-12.07-.15-24.16-.06-36.24,0-3.26-.66-6-3.07-8.39-17.11-17.2-27.19-37.89-30.65-61.91-1.47-10.21-9.65-4.7-14.85-5.74-6-1.21-5.41,3.54-5.41,7.31Q194.41,473.23,194.46,497Zm2.44,161c0-14.12-.32-28.26.13-42.36.22-7.19-1.25-9.06-8.5-6.17-20.89,8.31-36.27,29.09-36.9,51.65-.38,13.42.19,26.87-.25,40.29-.2,6.16,2.18,7.57,7.8,7.36,10-.37,20-.5,29.95,0,6.73.36,8-2.46,7.88-8.44C196.66,686.24,196.9,672.11,196.9,658Zm265.74-.65c0,14.47.19,28.94-.1,43.41-.11,5.46.91,8.24,7.26,7.93,10-.49,20-.4,30,0,5.83.22,7.91-1.75,7.74-7.65-.37-12.74.4-25.52-.3-38.23-1.36-24.92-13.57-42.74-36.54-53-5.65-2.52-8.51-2.67-8.19,5.18C463.06,629.07,462.64,643.21,462.64,657.34Zm-83.14-124c-27.38,10.3-54.39,9.9-81.62,5.63-6-.95-14-7-17-3.58-3.34,3.82-.65,12.51-1.6,18.93-1.36,9.1,3,13.86,10.49,17.7,23.87,12.27,47.93,13.48,72.8,3,11.81-5,20-11.29,17.1-25.89C378.72,544.58,379.5,539.59,379.5,533.39Zm85.33-218.78h-.18c0-5.51.47-11.07-.08-16.52-2.6-25.84-16.4-43.84-39.42-55.17-6.13-3-10.17-2.79-8.08,5.68,3,12,1.82,23.92-1.45,35.65-1,3.45-.63,5.9,2.32,8.08,13.4,9.89,20.57,23.7,24.49,39.48,1.06,4.25,3.16,6,7.86,6.14,14.55.54,14.54.8,14.54-14.05ZM213.68,390.14c0-4.47-.42-9,.1-13.4.76-6.36-1.44-8.3-7.87-8-7.88.33-15.81.36-19.13,8.87-3.45,8.84-4.05,18.34,1.21,26.77s14.7,7.6,22.48,6.05c6.71-1.34,2-8.6,3.11-13.07C214.16,395.08,213.68,392.55,213.68,390.14Zm260.34.15c.09-16.64-6-22.3-22.65-21.49-4.13.2-6.3.83-6.17,5.65.3,10.34.12,20.69.08,31,0,3,.25,4.86,4.17,5.48C465.32,413.47,473.92,406.45,474,390.29Z"/><path class="cls-10" d="M284.36,80.42a15.41,15.41,0,0,1-15.15,15.19,15.76,15.76,0,0,1-15.84-15.74,15.93,15.93,0,0,1,16.38-15.25A15.54,15.54,0,0,1,284.36,80.42Z"/><path class="cls-10" d="M151.46,80.6a15.5,15.5,0,1,1-15.34-16A15.66,15.66,0,0,1,151.46,80.6Z"/><path class="cls-10" d="M202.66,95.61a15.51,15.51,0,1,1,15.25-15.93A15.52,15.52,0,0,1,202.66,95.61Z"/><path class="cls-2" d="M691.44,900.37H477.05a81.19,81.19,0,0,1-11.37-.37c-8-1.13-12.23-6.55-12.81-14.06-.55-7.14,3.08-12.52,10-15.31,4-1.61,8.13-1.36,12.26-1.36h435c4.14,0,8.3-.23,12.25,1.42,6.87,2.86,10.48,8.26,9.85,15.4-.65,7.5-4.93,12.86-12.94,13.95a77.41,77.41,0,0,1-10.34.34Z"/><path class="cls-10" d="M674,964.81q-98.4,0-196.81,0a86.08,86.08,0,0,1-11.37-.4c-8-1.08-12.35-6.48-12.91-14s3.2-13.45,10.9-15.57A42.67,42.67,0,0,1,475,933.72q198.36-.09,396.74,0A37.53,37.53,0,0,1,883,935c7.5,2.4,11.16,8.15,10.39,15.89-.71,7.18-4.91,12.13-12.27,13.41a66.09,66.09,0,0,1-11.36.51Q771.85,964.84,674,964.81Z"/><path class="cls-10" d="M796.22,610.86q-56.9,0-113.8,0a44.89,44.89,0,0,1-11.25-1c-7.27-1.91-10.9-7.47-10.82-14.59.08-7.58,4-13.23,11.91-14.76a64.36,64.36,0,0,1,12.35-.74q111.74-.06,223.47,0c16.61,0,24.42,5.06,24.35,15.65s-7.84,15.55-24.48,15.55Z"/><path class="cls-10" d="M776.48,644.18q47.09,0,94.16,0a58,58,0,0,1,10.31.49c7.77,1.45,12.07,6.6,12.48,14.3.39,7.28-3.21,12.79-10.25,15-3.85,1.2-8.14,1.3-12.24,1.31q-94.16.11-188.3,0a46.11,46.11,0,0,1-10.26-.74c-8.21-1.89-12.47-7.69-12-15.77s5.15-13.65,13.68-14.23c7.9-.54,15.85-.34,23.78-.35Q737.17,644.14,776.48,644.18Z"/><path class="cls-2" d="M796.37,353.13H683.6c-3.1,0-6.22.05-9.3-.24-8.49-.83-13.26-6-13.88-14.1s3.64-13.9,11.73-16a42.06,42.06,0,0,1,10.24-.78Q796.2,322,910,322a55.38,55.38,0,0,1,8.26.23c8.6,1.3,15,8.54,14,16.36-1.1,8.47-5.87,13.83-14.89,14.35-3.44.19-6.89.16-10.34.16Z"/><path class="cls-10" d="M776.53,417.57q-46.56,0-93.11,0a72.36,72.36,0,0,1-10.32-.47c-8-1.19-12.24-6.54-12.72-14.09s3.27-13.42,11-15.48a43.82,43.82,0,0,1,11.23-1q94.15-.09,188.31,0c2.07,0,4.15-.11,6.2,0,10.33.78,16.8,7.19,16.44,16.21-.33,8.5-6.71,14.55-16.64,14.75-16.55.32-33.1.12-49.66.13Z"/><path class="cls-9" d="M287.41,978.57c-6.75-.9-13.29-5.72-20.07-9.59-5.84-3.32-10.62-3.45-16.2.17a100.73,100.73,0,0,1-14.64,7.64c-12,5.23-25.54-3.75-22-16,5.29-18.56,1.15-31.46-13.9-43.64-10.77-8.72-5.14-24.93,9-25.6,19.07-.89,29.31-9.33,36.08-26.66A14.56,14.56,0,0,1,273,865c6.59,17.82,17.69,25.16,36.2,26.49,14,1,18.2,15.5,9,26.12a7,7,0,0,1-1.46,1.47c-15.24,9.74-18.14,22.85-12.82,39.78C307.3,969.42,299.07,978.7,287.41,978.57ZM272,918.81c-8.46-12-17.11-9.19-25.25-.94,2.34,8.85,4.46,17.71,16.89,15C272.39,931,266.46,921.1,272,918.81Z"/><path class="cls-11" d="M330,708.63c-30.72,0-61.45-.21-92.17.16-7.29.09-10.22-1.17-10.07-9.43.54-30,.37-60.07.08-90.1-.06-5.75,1.76-8.14,7.12-10.41,15-6.34,28.84-10.86,43.55,1.83,7.1,6.13,17.36,8.46,27,9.77,7.1,1,8.8,4.23,8.34,10.86a219.07,219.07,0,0,0,0,25.88c.51,10.32,7.21,16.72,16.28,16.34,8.61-.36,14.38-6.72,14.63-16.71.28-10.69-3.16-23.08,1.15-31.63,4.41-8.72,19.15-5.9,28.23-11.24,1.77-1,4.2-1.28,5.57-2.64,14.93-14.87,30.49-8.42,46.29-1.86,4.11,1.7,5.67,3.72,5.64,8.27-.21,31.07-.32,62.14.05,93.21.08,6.79-2.43,7.87-8.41,7.82C392.15,708.49,361.08,708.63,330,708.63Z"/><path class="cls-12" d="M327.75,510c-46,2.7-82.43-30.91-82.86-76.65-.25-25.87-.09-51.74,0-77.6,0-11.69,2-13.72,14-13.78,21.38-.09,42.76-.11,64.14.21,14.88.22,29.61-.33,44-4.42,0,30.74-.36,61.49.22,92.22C367.88,463.67,353.73,489.64,327.75,510Z"/><path class="cls-13" d="M295.76,310.87c-13.45,0-26.9.13-40.35,0-15.93-.2-27.74,6.82-36.1,20.09-3.51,5.58-16.23,9.38-22.35,6.75-2.44-1.05-2.56-3-2.54-5,.19-19.92-1.91-40.1,6.51-59.12,15.83-35.79,43.17-55.55,82.31-57.65,18.57-1,37.24-.43,55.86-.22,27.38.3,48.51,21.13,48.49,47.44s-21,47.24-48.37,47.83c-14.48.31-29,.06-43.46.06Z"/><path class="cls-14" d="M327.75,510c26-20.35,40.13-46.32,39.5-80-.58-30.73-.19-61.48-.22-92.22,9.77-5,19.73-9.8,27.37-17.95,3.42-3.64,5.66-2.3,8.39.62,8.55,9.18,11,20.57,11.18,32.45.31,26.89.8,53.81,0,80.68C412.41,481.63,376.45,513.12,327.75,510Z"/><path class="cls-15" d="M464.86,498.17c0,13.44,0,26.88,0,40.33a85.77,85.77,0,0,1-.45,11.35c-3.05,22.23-10.23,26.73-30.78,19.5-22.94-8.08-22.94-8.08-22.94-32.18,0-1.72.14-3.46,0-5.17-1.11-11.69,1.21-21.38,10-30.7,13.48-14.28,20.83-32.41,23-52C445,438,453,443,458.51,442c7.25-1.23,6.36,4.12,6.36,8.57Q464.86,474.38,464.86,498.17Z"/><path class="cls-13" d="M194.44,497q0-23.82,0-47.63c0-3.77-.61-8.52,5.41-7.31,5.2,1,13.38-4.47,14.85,5.74,3.46,24,13.54,44.71,30.65,61.91,2.41,2.43,3.09,5.13,3.07,8.39-.09,12.08-.23,24.17.06,36.24.11,4.92-1.63,7.57-6.29,9.11-9.48,3.14-18.91,6.48-28.21,10.12-5.64,2.21-9,.41-11.93-4.49a52.69,52.69,0,0,1-7.61-27.55C194.51,526.73,194.46,511.89,194.44,497Z"/><path class="cls-16" d="M196.9,658c0,14.12-.24,28.25.11,42.36.15,6-1.15,8.8-7.88,8.44-10-.53-20-.4-29.95,0-5.62.21-8-1.2-7.8-7.36.44-13.42-.13-26.87.25-40.29.63-22.56,16-43.34,36.9-51.65,7.25-2.89,8.72-1,8.5,6.17C196.58,629.73,196.9,643.87,196.9,658Z"/><path class="cls-16" d="M462.64,657.34c0-14.13.42-28.27-.17-42.38-.32-7.85,2.54-7.7,8.19-5.18,23,10.26,35.18,28.08,36.54,53,.7,12.71-.07,25.49.3,38.23.17,5.9-1.91,7.87-7.74,7.65-10-.38-20-.47-30,0-6.35.31-7.37-2.47-7.26-7.93C462.83,686.28,462.64,671.81,462.64,657.34Z"/><path class="cls-14" d="M379.5,533.39c0,6.2-.78,11.19.15,15.82,2.92,14.6-5.29,20.93-17.1,25.89-24.87,10.45-48.93,9.24-72.8-3-7.49-3.84-11.85-8.6-10.49-17.7.95-6.42-1.74-15.11,1.6-18.93,3-3.44,11,2.63,17,3.58C325.11,543.29,352.12,543.69,379.5,533.39Z"/><path class="cls-15" d="M464.83,314.61v9.29c0,14.85,0,14.59-14.54,14.05-4.7-.17-6.8-1.89-7.86-6.14-3.92-15.78-11.09-29.59-24.49-39.48-2.95-2.18-3.28-4.63-2.32-8.08,3.27-11.73,4.41-23.6,1.45-35.65-2.09-8.47,1.95-8.69,8.08-5.68,23,11.33,36.82,29.33,39.42,55.17.55,5.45.08,11,.08,16.52Z"/><path class="cls-14" d="M213.68,390.14c0,2.41.48,4.94-.1,7.2-1.14,4.47,3.6,11.73-3.11,13.07-7.78,1.55-17.17,2.45-22.48-6.05s-4.66-17.93-1.21-26.77c3.32-8.51,11.25-8.54,19.13-8.87,6.43-.28,8.63,1.66,7.87,8C213.26,381.15,213.68,385.67,213.68,390.14Z"/><path class="cls-14" d="M474,390.29c-.1,16.16-8.7,23.18-24.57,20.68-3.92-.62-4.18-2.51-4.17-5.48,0-10.35.22-20.7-.08-31-.13-4.82,2-5.45,6.17-5.65C468,368,474.11,373.65,474,390.29Z"/><path class="cls-11" d="M272,918.81c-5.51,2.29.42,12.16-8.36,14.07-12.43,2.7-14.55-6.16-16.89-15C254.86,909.62,263.51,906.79,272,918.81Z"/></svg>